<svg width="24" height="22" viewBox="0 0 24 22" fill="none" xmlns="http://www.w3.org/2000/svg">
<path d="M1.47317 19.4268C1.43057 19.0687 1.47599 18.7063 1.6043 18.3709L1.66499 18.2284L8.91974 2.63471C9.81836 0.701741 12.6631 1.02604 13.104 3.11159L14.5082 9.75384C14.5468 9.93659 14.6277 10.1083 14.743 10.2552C14.8583 10.4021 15.0061 10.5203 15.1744 10.6012L15.1737 10.6023L21.4605 13.6072C23.3743 14.5214 23.0372 17.3423 20.9614 17.7811L4.13663 21.3361C3.73335 21.4213 3.31426 21.3931 2.9264 21.2536C2.53855 21.1141 2.19714 20.8692 1.94051 20.5467C1.68388 20.2241 1.5219 19.8361 1.47317 19.4268Z" fill="#FF7D5D" stroke="#3F3F3F"/>
</svg>
