<?xml version="1.0" encoding="UTF-8"?>
<!DOCTYPE svg PUBLIC "-//W3C//DTD SVG 1.1//EN" "http://www.w3.org/Graphics/SVG/1.1/DTD/svg11.dtd">
<svg xmlns="http://www.w3.org/2000/svg" version="1.1" width="51px" height="51px" style="shape-rendering:geometricPrecision; text-rendering:geometricPrecision; image-rendering:optimizeQuality; fill-rule:evenodd; clip-rule:evenodd" xmlns:xlink="http://www.w3.org/1999/xlink">
<g><path style="opacity:0.125" fill="#c74322" d="M 17.5,-0.5 C 22.5,-0.5 27.5,-0.5 32.5,-0.5C 40.8333,3.16667 46.8333,9.16667 50.5,17.5C 50.5,22.1667 50.5,26.8333 50.5,31.5C 47.2291,40.4371 41.2291,46.7704 32.5,50.5C 27.8333,50.5 23.1667,50.5 18.5,50.5C 9.58798,47.2555 3.25465,41.2555 -0.5,32.5C -0.5,27.5 -0.5,22.5 -0.5,17.5C 3.16667,9.16667 9.16667,3.16667 17.5,-0.5 Z"/></g>
<g><path style="opacity:1" fill="#fde6e0" d="M 20.5,0.5 C 39.9956,0.494619 49.4956,10.1613 49,29.5C 45.0405,44.0651 35.5405,50.5651 20.5,49C 5.63341,44.7806 -0.866592,34.9473 1,19.5C 4.12106,9.54368 10.6211,3.21035 20.5,0.5 Z"/></g>
<g><path style="opacity:1" fill="#c94929" d="M 23.5,10.5 C 33.6367,11.946 36.97,17.446 33.5,27C 35.152,29.3227 36.8187,31.656 38.5,34C 36.5273,34.4955 34.5273,34.6621 32.5,34.5C 32.6882,36.1033 32.1882,37.4366 31,38.5C 29.4345,36.0072 27.4345,34.0072 25,32.5C 22.5655,34.0072 20.5655,36.0072 19,38.5C 17.8585,35.6243 15.6918,33.9576 12.5,33.5C 13.9652,31.4006 15.2985,29.2339 16.5,27C 15.3722,25.5319 14.7055,23.8652 14.5,22C 15.709,19.6808 16.5423,17.1808 17,14.5C 19.3013,13.2401 21.4679,11.9067 23.5,10.5 Z"/></g>
<g><path style="opacity:1" fill="#f9d8d0" d="M 28.5,30.5 C 30.288,30.2148 31.9547,30.5481 33.5,31.5C 31.0387,34.4227 29.3721,34.0894 28.5,30.5 Z"/></g>
<g><path style="opacity:1" fill="#f8d6ce" d="M 16.5,30.5 C 18.288,30.2148 19.9547,30.5481 21.5,31.5C 19.4215,33.9799 17.7548,33.6465 16.5,30.5 Z"/></g>
<g><path style="opacity:1" fill="#fbded7" d="M 23.5,13.5 C 29.7341,12.8998 33.0675,15.7331 33.5,22C 31.9872,23.8792 31.3205,26.0459 31.5,28.5C 29.0459,28.3205 26.8792,28.9872 25,30.5C 23.1208,28.9872 20.9541,28.3205 18.5,28.5C 18.6795,26.0459 18.0128,23.8792 16.5,22C 17.861,20.073 18.6943,17.9063 19,15.5C 20.6225,14.9011 22.1225,14.2344 23.5,13.5 Z"/></g>
<g><path style="opacity:1" fill="#c94827" d="M 26.5,17.5 C 27.675,17.281 28.675,17.6143 29.5,18.5C 28.5568,21.4001 26.8901,23.7334 24.5,25.5C 22.8333,24.5 21.5,23.1667 20.5,21.5C 21.533,20.548 22.6996,20.548 24,21.5C 25.5947,20.6443 26.428,19.3109 26.5,17.5 Z"/></g>
</svg>
