<svg width="96" height="219" viewBox="0 0 96 219" fill="none" xmlns="http://www.w3.org/2000/svg">
<path d="M46.7865 55.311C34.9418 47.4552 9.00197 25.395 0 0L0 218.358C2.56635 209.861 15.5165 186.23 46.7865 159.68C49.5503 157.115 60.5264 148.426 82.3206 134.189C96.1957 121.572 97.2024 109.179 94.4252 97.376C92.0646 87.3433 85.6371 76.8583 46.7865 55.311Z" fill="#232323"/>
<g clip-path="url(#clip0_6_479)">
<path d="M46.8382 97.9939L49.1801 100.336L41.5731 107.959H68.4302V111.281H41.5731L49.1967 118.905L46.8382 121.247L35.2118 109.62L46.8382 97.9939Z" fill="white"/>
</g>
<defs>
<clipPath id="clip0_6_479">
<rect width="39.8621" height="39.8621" fill="white" transform="matrix(-1 0 0 1 71.7518 89.6893)"/>
</clipPath>
</defs>
</svg>
