<svg width="281" height="104" viewBox="0 0 281 104" fill="none" xmlns="http://www.w3.org/2000/svg">
<path d="M1.99289 35.8031C2.0421 33.1951 2.33735 30.5133 2.87863 27.7577C3.46911 25.0021 4.28103 22.3449 5.31439 19.7861C6.39695 17.2273 7.70094 14.8162 9.22636 12.5526C10.7518 10.2399 12.474 8.24699 14.3931 6.57394C16.3614 4.85169 18.5265 3.49849 20.8885 2.51435C23.2504 1.48099 25.7846 0.939714 28.491 0.890507C32.9197 0.841301 36.5856 1.62862 39.4888 3.25246C42.4413 4.8763 44.7786 7.01681 46.5009 9.67401C48.2231 12.282 49.4041 15.2098 50.0438 18.4575C50.7327 21.656 51.0772 24.8052 51.0772 27.9053C51.0279 32.9244 50.216 37.6237 48.6414 42.0032C47.116 46.3334 45.1231 50.1224 42.6627 53.3701C40.2023 56.6177 37.4221 59.2011 34.3221 61.1202C31.2712 62.9901 28.1712 63.9742 25.0219 64.0727C20.7409 64.2203 17.1241 63.4822 14.1717 61.8583C11.2193 60.2837 8.83271 58.1678 7.01204 55.5106C5.19137 52.8042 3.86277 49.7287 3.02625 46.2842C2.23893 42.8397 1.89448 39.346 1.99289 35.8031ZM37.9388 27.9791C37.9388 26.7981 37.8896 25.5187 37.7912 24.1409C37.742 22.7139 37.619 21.2869 37.4221 19.8599C37.2253 18.3837 36.9301 16.9813 36.5364 15.6527C36.1427 14.2749 35.6507 13.0939 35.0602 12.1098C34.4697 11.0764 33.7562 10.2645 32.9197 9.67401C32.0831 9.03431 31.099 8.73907 29.9672 8.78827C28.5402 8.83748 26.9902 9.60019 25.3171 11.0764C23.6441 12.5526 22.0695 14.5209 20.5932 16.9813C19.117 19.4417 17.8622 22.3203 16.8289 25.6172C15.7955 28.8648 15.205 32.334 15.0574 36.0245C15.0082 36.9102 14.959 38.0174 14.9098 39.346C14.9098 40.6254 14.9836 42.0032 15.1312 43.4794C15.2789 44.9556 15.5003 46.4318 15.7955 47.9081C16.14 49.3843 16.6321 50.7129 17.2718 51.8938C17.9114 53.0748 18.7234 54.059 19.7075 54.8463C20.7409 55.5844 21.9957 55.9535 23.4719 55.9535C25.391 56.0027 27.2116 55.3876 28.9339 54.1082C30.6561 52.8288 32.157 50.9835 33.4363 48.5724C34.7649 46.1612 35.8229 43.2334 36.6102 39.7889C37.3975 36.2951 37.8404 32.3586 37.9388 27.9791ZM83.9213 63.925C81.3133 59.398 78.9513 55.3384 76.8354 51.7462C74.7195 48.1541 72.9727 45.1278 71.5949 42.6675L70.4877 44.0699C70.4385 46.7763 70.3893 49.3597 70.3401 51.82C70.3401 54.2312 70.3401 56.3717 70.3401 58.2416C70.3893 60.0623 70.4139 61.5385 70.4139 62.6702C70.4631 63.802 70.5369 64.4171 70.6353 64.5155C70.7829 64.86 70.5861 65.0076 70.0448 64.9584C69.5528 64.9584 68.8639 64.8354 67.9781 64.5893C67.0924 64.3433 66.1082 64.0234 65.0257 63.6298C63.9431 63.2361 62.9344 62.8179 61.9994 62.375C61.0645 61.9813 60.2772 61.6123 59.6375 61.2678C59.047 60.9234 58.7518 60.6527 58.7518 60.4559C58.5549 60.3575 58.4073 59.4472 58.3089 57.7249C58.2105 55.9535 58.1613 53.6653 58.1613 50.8605C58.1613 48.0065 58.1859 44.7834 58.2351 41.1913C58.3335 37.5499 58.4319 33.8348 58.5303 30.0458C58.6287 26.2569 58.7272 22.5171 58.8256 18.8266C58.9732 15.136 59.1208 11.7899 59.2684 8.78827C59.17 8.44382 59.4407 8.19779 60.0804 8.05017C60.7693 7.85334 61.6304 7.75492 62.6637 7.75492C63.6971 7.70572 64.8289 7.75492 66.059 7.90254C67.2892 8.00096 68.3964 8.17318 69.3805 8.41922C70.3647 8.61605 71.152 8.86209 71.7425 9.15733C72.333 9.45257 72.5052 9.74782 72.2592 10.0431C72.1115 10.6828 71.9639 11.6423 71.8163 12.9217C71.6687 14.1519 71.521 15.6281 71.3734 17.3503C71.275 19.0234 71.152 20.8933 71.0044 22.96C70.906 25.0267 70.8321 27.1672 70.7829 29.3815C72.8004 26.8227 74.7441 24.3378 76.614 21.9266C78.4839 19.5155 80.1323 17.3749 81.5593 15.5051C82.9863 13.586 84.1181 12.0606 84.9546 10.9288C85.7912 9.74782 86.2094 9.08352 86.2094 8.93589C86.2094 8.59145 86.6277 8.37001 87.4642 8.2716C88.3007 8.12398 89.3095 8.09937 90.4905 8.19779C91.7206 8.24699 93.0246 8.37001 94.4024 8.56684C95.7802 8.76367 97.0596 8.9851 98.2406 9.23114C99.4216 9.47717 100.381 9.72321 101.119 9.96925C101.857 10.1661 102.177 10.3383 102.079 10.4859C102.226 10.6828 101.587 11.4947 100.16 12.9217C98.7327 14.3487 96.8628 16.194 94.5501 18.4575C92.2865 20.6718 89.7031 23.2306 86.7999 26.1338C83.9459 28.9879 81.1165 31.9403 78.3117 34.9912C78.9021 35.9261 79.7387 37.1563 80.8212 38.6817C81.9038 40.1579 83.1094 41.7818 84.438 43.5532C85.7666 45.3247 87.1444 47.17 88.5714 49.089C90.0476 50.9589 91.45 52.755 92.7786 54.4772C94.1564 56.1995 95.4112 57.7741 96.5429 59.2011C97.6747 60.5789 98.5851 61.6615 99.274 62.4488C99.6184 62.6456 99.4954 62.8425 98.9049 63.0393C98.3144 63.2853 97.4533 63.5314 96.3215 63.7774C95.239 64.0234 93.9842 64.2203 92.5572 64.3679C91.1794 64.5647 89.8508 64.6877 88.5714 64.7369C87.3412 64.7862 86.2832 64.7616 85.3975 64.6631C84.5118 64.5647 84.0197 64.3187 83.9213 63.925ZM102.301 8.78827C102.153 8.2962 102.645 7.97635 103.777 7.82873C104.909 7.68111 106.237 7.65651 107.763 7.75492C110.666 7.21364 113.815 7.04142 117.211 7.23824C120.606 7.43507 123.78 8.09937 126.732 9.23114C129.734 10.3629 132.293 12.0114 134.409 14.1765C136.524 16.2924 137.779 19.0234 138.173 22.3695C138.517 25.814 138.419 28.8402 137.878 31.4482C137.386 34.007 136.549 36.2213 135.368 38.0912C134.187 39.9611 132.76 41.5357 131.087 42.8151C129.414 44.0453 127.593 45.0294 125.625 45.7675C126.855 48.1295 128.11 50.2946 129.389 52.2629C130.669 54.2312 131.825 55.9288 132.858 57.3559C133.941 58.7337 134.827 59.8408 135.516 60.6773C136.254 61.4647 136.672 61.8829 136.77 61.9321C137.017 62.1782 136.893 62.375 136.401 62.5226C135.909 62.7195 135.196 62.8671 134.261 62.9655C133.326 63.1131 132.268 63.2115 131.087 63.2607C129.955 63.3591 128.873 63.3837 127.839 63.3345C126.806 63.3345 125.92 63.2853 125.182 63.1869C124.444 63.1377 124.05 63.0393 124.001 62.8917C123.854 62.8917 123.558 62.498 123.115 61.7107C122.722 60.9726 122.205 59.9392 121.565 58.6106C120.926 57.282 120.188 55.7074 119.351 53.8867C118.515 52.0661 117.629 50.0732 116.694 47.9081C116.153 47.9573 115.611 48.0065 115.07 48.0557C114.529 48.1049 113.987 48.1295 113.446 48.1295C113.397 50.393 113.372 52.5089 113.372 54.4772C113.372 56.3963 113.372 58.094 113.372 59.5702C113.422 61.0464 113.471 62.2274 113.52 63.1131C113.569 63.9988 113.618 64.4663 113.668 64.5155C113.815 64.86 113.618 65.0076 113.077 64.9584C112.585 64.9584 111.896 64.8354 111.01 64.5893C110.125 64.3433 109.141 64.0234 108.058 63.6298C106.975 63.2361 105.967 62.8179 105.032 62.375C104.097 61.9813 103.31 61.6123 102.67 61.2678C102.079 60.9234 101.784 60.6527 101.784 60.4559C101.587 60.3575 101.44 59.5702 101.341 58.094C101.243 56.5685 101.194 54.5756 101.194 52.1153C101.194 49.6057 101.218 46.7517 101.267 43.5532C101.317 40.3547 101.366 37.0333 101.415 33.5887C101.513 30.095 101.612 26.6013 101.71 23.1076C101.858 19.6139 101.981 16.317 102.079 13.2169C101.932 11.9867 101.981 11.0026 102.227 10.2645C102.227 10.0185 102.227 9.77242 102.227 9.52638C102.227 9.28035 102.252 9.03431 102.301 8.78827ZM114.406 17.5718C114.209 20.6226 114.037 24.1409 113.889 28.1267C113.791 32.1125 113.692 36.1721 113.594 40.3055C115.956 39.7643 118.047 38.8785 119.868 37.6483C121.738 36.4182 123.288 35.0404 124.518 33.5149C125.748 31.9895 126.634 30.4395 127.175 28.8648C127.716 27.2902 127.889 25.8878 127.692 24.6576C127.396 23.0338 126.781 21.7298 125.846 20.7456C124.961 19.7123 123.903 18.9496 122.673 18.4575C121.442 17.9654 120.089 17.6702 118.613 17.5718C117.186 17.4242 115.784 17.4242 114.406 17.5718ZM153.305 8.86208L151.828 27.9053H147.769L146.293 8.86208H153.305ZM180.66 63.1869C181.053 61.6123 181.472 59.3734 181.914 56.4701C182.357 53.5177 182.726 50.3438 183.022 46.9485C183.366 43.504 183.612 40.0349 183.76 36.5412C183.957 32.9983 183.981 29.8244 183.834 27.0196C183.735 24.2148 183.465 21.9758 183.022 20.3028C182.579 18.5805 181.914 17.8424 181.029 18.0884C180.586 18.2361 180.094 18.8266 179.553 19.8599C179.011 20.8441 178.47 22.1234 177.929 23.6981C177.387 25.2727 176.846 27.0442 176.305 29.0125C175.813 30.9808 175.345 32.9737 174.902 34.9912C174.46 37.0086 174.066 38.9769 173.721 40.896C173.426 42.8151 173.205 44.4882 173.057 45.9152C173.008 48.4247 172.983 50.7867 172.983 53.001C172.983 55.2153 172.983 57.1836 172.983 58.9059C173.033 60.5789 173.057 61.9075 173.057 62.8917C173.106 63.925 173.18 64.4663 173.279 64.5155C173.426 64.86 173.229 65.0076 172.688 64.9584C172.196 64.9584 171.507 64.8354 170.621 64.5893C169.736 64.3433 168.752 64.0234 167.669 63.6298C166.586 63.2361 165.578 62.8179 164.643 62.375C163.708 61.9813 162.92 61.6123 162.281 61.2678C161.69 60.9234 161.395 60.6527 161.395 60.4559C161.198 60.3575 161.051 59.4472 160.952 57.7249C160.854 55.9535 160.805 53.6653 160.805 50.8605C160.805 48.0065 160.829 44.7834 160.878 41.1913C160.977 37.5499 161.075 33.8348 161.174 30.0458C161.272 26.2569 161.37 22.5171 161.469 18.8266C161.616 15.136 161.764 11.7899 161.912 8.78827C161.813 8.44382 162.084 8.19779 162.724 8.05017C163.413 7.85334 164.274 7.75492 165.307 7.75492C166.34 7.70572 167.472 7.75492 168.702 7.90254C169.933 8.00096 171.04 8.17318 172.024 8.41922C173.008 8.61605 173.795 8.86209 174.386 9.15733C174.976 9.45257 175.148 9.74782 174.902 10.0431C174.706 10.732 174.533 11.7899 174.386 13.2169C174.238 14.6439 174.091 16.317 173.943 18.2361C175.173 15.4805 176.502 13.2661 177.929 11.5931C179.356 9.92004 180.955 9.23114 182.726 9.52638C183.907 9.72321 185.187 10.3137 186.565 11.2978C187.992 12.282 189.32 13.586 190.55 15.2098C191.781 16.7845 192.839 18.6297 193.724 20.7456C194.61 22.8616 195.102 25.1251 195.2 27.5362C195.299 29.9474 195.25 32.5554 195.053 35.3602C194.856 38.165 194.635 41.1913 194.389 44.4389C194.142 47.6374 193.896 51.0819 193.65 54.7725C193.454 58.4138 193.38 62.252 193.429 66.287C193.527 66.6314 193.232 66.8283 192.543 66.8775C191.904 66.9267 191.067 66.8775 190.034 66.7298C189.05 66.5822 187.967 66.3608 186.786 66.0655C185.605 65.8195 184.522 65.5243 183.538 65.1798C182.554 64.8354 181.767 64.4909 181.176 64.1465C180.635 63.802 180.463 63.4822 180.66 63.1869ZM217.934 28.2005C218.032 27.7577 218.377 27.4624 218.967 27.3148C219.607 27.118 220.345 27.0688 221.181 27.1672C222.018 27.2164 222.904 27.364 223.839 27.6101C224.823 27.8069 225.708 28.0775 226.496 28.422C227.283 28.7664 227.898 29.1601 228.341 29.603C228.784 30.0458 228.956 30.4641 228.858 30.8577C228.464 32.1371 228.144 33.2197 227.898 34.1054C227.701 34.9912 227.504 35.8031 227.308 36.5412C227.16 37.2793 227.037 38.042 226.939 38.8293C226.84 39.5674 226.717 40.4778 226.57 41.5603C226.323 43.4302 226.2 45.1771 226.2 46.8009C226.25 48.3755 226.373 49.7533 226.57 50.9343C226.816 52.0661 227.16 52.9764 227.603 53.6653C228.046 54.305 228.587 54.6249 229.227 54.6249C230.506 54.6249 231.712 53.8375 232.843 52.2629C233.975 50.6883 234.984 48.8184 235.87 46.6533C236.805 44.4882 237.592 42.2984 238.232 40.0841C238.921 37.8698 239.437 36.0983 239.782 34.7697C240.077 33.7364 240.569 32.9983 241.258 32.5554C241.947 32.1125 242.636 31.9403 243.325 32.0387C244.063 32.1371 244.678 32.4816 245.17 33.0721C245.711 33.6133 245.933 34.3269 245.834 35.2126C245.441 38.4111 244.653 41.6095 243.472 44.808C242.34 47.9573 240.963 50.8113 239.339 53.3701C237.715 55.8796 235.968 57.8971 234.098 59.4226C232.228 60.948 230.432 61.6369 228.71 61.4893C226.397 61.2924 224.478 60.8004 222.953 60.0131C221.427 59.2257 219.877 58.0448 218.303 56.4701C217.86 56.0273 217.491 55.3384 217.196 54.4034C216.015 56.3717 214.858 57.9463 213.726 59.1273C212.595 60.3083 211.389 60.8496 210.11 60.7512C208.289 60.6527 206.641 60.2837 205.164 59.644C203.737 58.9551 202.507 58.1924 201.474 57.3559C200.44 56.5193 199.629 55.6828 199.038 54.8463C198.448 53.9606 198.079 53.2717 197.931 52.7796C197.488 51.4018 197.267 49.7779 197.267 47.9081C197.267 46.0382 197.439 44.1191 197.783 42.1508C198.128 40.1825 198.62 38.2388 199.259 36.3197C199.948 34.3515 200.736 32.58 201.621 31.0054C202.507 29.4307 203.467 28.1513 204.5 27.1672C205.583 26.1338 206.714 25.5434 207.895 25.3957C208.978 25.4941 210.454 25.9124 212.324 26.6505C214.194 27.3394 215.965 28.299 217.638 29.5291L217.934 28.2005ZM209.372 53.6653C209.814 53.6653 210.356 53.3455 210.995 52.7058C211.684 52.0661 212.373 51.1557 213.062 49.9748C213.8 48.7446 214.465 47.2684 215.055 45.5461C215.695 43.8239 216.162 41.8556 216.457 39.6412C216.507 39.1 216.531 38.5833 216.531 38.0912C216.58 37.5991 216.654 37.0825 216.753 36.5412C216.753 35.6554 216.58 34.7697 216.236 33.884C215.941 32.949 215.522 32.457 214.981 32.4078C214.292 32.3586 213.53 32.8506 212.693 33.884C211.906 34.9173 211.118 36.2213 210.331 37.796C209.593 39.3706 208.929 41.0929 208.338 42.9627C207.797 44.7834 207.428 46.5057 207.231 48.1295C207.034 49.7041 207.083 51.0327 207.379 52.1153C207.674 53.1486 208.338 53.6653 209.372 53.6653ZM256.042 26.2815C255.993 26.0354 256.19 25.8632 256.632 25.7648C257.075 25.6664 257.617 25.6418 258.256 25.691C258.945 25.691 259.683 25.7402 260.471 25.8386C261.258 25.937 261.947 26.0846 262.537 26.2815C263.177 26.4291 263.669 26.6259 264.014 26.8719C264.407 27.0688 264.53 27.2902 264.383 27.5362L263.423 32.1863C263.177 33.9578 263.374 35.5816 264.014 37.0579C264.702 38.4849 265.564 39.469 266.597 40.0103C267.68 40.5024 268.811 40.404 269.992 39.715C271.222 38.9769 272.28 37.3285 273.166 34.7697C273.609 33.5395 274.224 32.6784 275.011 32.1863C275.848 31.6943 276.635 31.4974 277.373 31.5958C278.161 31.6943 278.825 32.0387 279.366 32.6292C279.908 33.1705 280.104 33.8594 279.957 34.6959C279.514 37.5499 278.579 39.8873 277.152 41.7079C275.774 43.4794 274.15 44.7834 272.28 45.6199C270.46 46.4072 268.541 46.7271 266.523 46.5795C264.555 46.3826 262.808 45.6937 261.283 44.5128C260.643 46.8255 259.88 49.0398 258.994 51.1557C258.158 53.2224 257.223 55.0185 256.19 56.5439C255.156 58.0694 254.024 59.2749 252.794 60.1607C251.613 60.9972 250.383 61.3416 249.104 61.194C247.923 61.0956 246.914 60.948 246.078 60.7512C245.29 60.5051 244.552 60.2099 243.863 59.8654C243.223 59.4718 242.584 59.0043 241.944 58.463C241.304 57.9217 240.591 57.2574 239.804 56.4701C239.016 55.6828 238.426 54.2066 238.032 52.0415C237.688 49.8271 237.466 47.3668 237.368 44.6604C237.319 41.954 237.392 39.2476 237.589 36.5412C237.835 33.7856 238.155 31.4728 238.549 29.603C238.696 28.9141 239.361 28.545 240.542 28.4958C241.772 28.4466 243.076 28.6188 244.454 29.0125C245.831 29.3569 247.037 29.849 248.07 30.4887C249.153 31.0792 249.62 31.6943 249.473 32.334C249.325 33.1705 249.104 34.2776 248.809 35.6554C248.562 37.0333 248.341 38.5341 248.144 40.1579C247.947 41.7325 247.775 43.3318 247.628 44.9556C247.529 46.5795 247.529 48.0557 247.628 49.3843C247.726 50.6637 247.947 51.7216 248.292 52.5581C248.685 53.3455 249.251 53.7145 249.989 53.6653C250.678 53.6161 251.318 53.001 251.909 51.82C252.548 50.6391 253.114 49.1382 253.606 47.3176C254.148 45.4477 254.59 43.381 254.935 41.1175C255.279 38.8047 255.525 36.5166 255.673 34.253C255.722 33.1705 256.165 32.4324 257.002 32.0387C257.838 31.6451 258.724 31.522 259.659 31.6697C260.594 31.8173 261.43 32.2109 262.168 32.8506C262.906 33.4903 263.226 34.253 263.128 35.1388C262.931 36.7134 262.685 38.288 262.39 39.8627C262.094 41.4373 261.725 42.9873 261.283 44.5128C260.2 43.7254 259.29 42.7167 258.552 41.4865C257.863 40.2563 257.395 38.7801 257.149 37.0579C257.051 36.615 256.903 36.2951 256.706 36.0983C256.559 35.8523 256.386 35.6308 256.19 35.434C255.993 35.188 255.845 34.9173 255.747 34.6221C255.648 34.3269 255.673 33.9086 255.821 33.3673L256.042 26.2815Z" fill="#C43917"/>
<path d="M44.9089 80.3877C46.9987 80.3484 49.0403 81.0175 50.7014 82.2862C51.8504 83.193 52.7794 84.348 53.4188 85.6647C54.0744 86.9438 54.4232 88.358 54.4378 89.7953C54.4541 91.7984 53.7404 93.739 52.4301 95.2542C51.2579 96.6377 49.7124 97.6547 47.978 98.1839C46.8825 98.5377 45.7387 98.7198 44.5874 98.7237C43.1218 98.7236 41.6736 98.4071 40.3416 97.7957C38.7402 97.0851 37.3942 95.902 36.4839 94.4051C35.5814 92.9489 35.1122 91.2658 35.1313 89.5527C35.0982 87.6046 35.7103 85.7002 36.8721 84.1362C37.9282 82.7247 39.3779 81.6569 41.0391 81.0671C42.2764 80.6048 43.5882 80.3745 44.9089 80.3877ZM43.6958 84.0937C43.3499 84.0881 43.0087 84.1744 42.7071 84.3438C42.4055 84.5133 42.1543 84.7598 41.9793 85.0581C41.6438 85.5666 41.4723 86.1657 41.488 86.7747C41.5226 87.9226 41.727 89.0591 42.0945 90.1471C42.4491 91.3378 42.9525 92.479 43.5927 93.5438C43.8411 93.9484 44.1768 94.2925 44.5753 94.5506C44.9343 94.7918 45.356 94.9225 45.7884 94.9267C46.0912 94.9364 46.3922 94.8751 46.6671 94.7477C46.942 94.6202 47.1832 94.4302 47.3715 94.1928C47.7952 93.6393 48.01 92.9541 47.978 92.2579C47.9652 91.1184 47.7979 89.986 47.4807 88.8915C47.194 87.806 46.755 86.7665 46.1766 85.8042C45.8806 85.3303 45.4954 84.9183 45.0423 84.5911C44.6506 84.291 44.1766 84.1175 43.6837 84.0937H43.6958Z" fill="#C43917"/>
<path d="M70.4749 84.2697L69.0919 85.598C68.6756 85.9196 68.4031 86.3927 68.3338 86.9142C68.3349 87.1422 68.3956 87.3659 68.5097 87.5632C68.6959 87.8756 68.9133 88.1682 69.1587 88.4366L74.011 94.023C74.2863 94.3583 74.5842 94.6745 74.9027 94.9692C75.1296 95.1394 75.376 95.2819 75.6366 95.3938C76.0153 95.527 76.355 95.752 76.6253 96.0488C76.829 96.3187 76.932 96.6512 76.9164 96.989C76.9164 97.9049 76.2674 98.3598 74.9694 98.3598H70.0806C69.799 98.3761 69.5198 98.2994 69.286 98.1414C68.9377 97.8165 68.6283 97.4521 68.3641 97.0557C67.5206 95.9596 66.6175 94.9107 65.6589 93.9138C65.3392 93.5587 65.001 93.2206 64.6459 92.9008C64.4999 92.7629 64.3121 92.6775 64.1122 92.6582C63.6088 92.6582 63.3601 93.1313 63.3601 94.0654C63.3279 94.3499 63.3549 94.6379 63.4394 94.9114C63.524 95.1849 63.6642 95.4379 63.8514 95.6546L64.2638 95.9396C64.4695 96.0476 64.6426 96.2086 64.7652 96.4058C64.8878 96.6031 64.9556 96.8296 64.9614 97.0618C64.9614 97.6259 64.5792 98.0322 63.8271 98.2749C62.5761 98.5712 61.2903 98.6937 60.0058 98.6388C58.8382 98.6796 57.6697 98.584 56.5243 98.3537C56.2321 98.2777 55.9698 98.1149 55.7721 97.8867C55.5845 97.6739 55.481 97.4 55.481 97.1164C55.4941 96.8705 55.5723 96.6325 55.7077 96.4268C55.8431 96.2211 56.0307 96.0551 56.2513 95.9457C56.4566 95.8195 56.6274 95.6444 56.7487 95.4362C56.8851 95.1395 56.979 94.8251 57.0277 94.5021C57.233 93.0132 57.3202 91.5103 57.2885 90.0076C57.3309 88.2967 57.2397 86.585 57.0156 84.8883C56.9812 84.575 56.8843 84.2718 56.7305 83.9967C56.5677 83.78 56.361 83.6002 56.1239 83.469C55.9075 83.3658 55.7248 83.2032 55.5971 83.0003C55.4693 82.7974 55.4017 82.5624 55.4021 82.3226C55.3941 82.1333 55.4304 81.9447 55.5084 81.7719C55.5863 81.5992 55.7037 81.4471 55.851 81.3279C56.2801 81.0271 56.7752 80.8336 57.2946 80.7638C58.3855 80.5711 59.4926 80.4837 60.6003 80.503C61.6262 80.4505 62.6533 80.5819 63.633 80.8912C63.9 80.9818 64.1303 81.1569 64.289 81.3899C64.4477 81.623 64.5261 81.9015 64.5125 82.1831C64.5277 82.394 64.4813 82.6047 64.3791 82.7897C64.1753 83.0425 63.9387 83.2669 63.6755 83.4569C63.4737 83.7072 63.3419 84.0064 63.2933 84.3242C63.1794 84.7621 63.1203 85.2123 63.1174 85.6647C63.1174 86.3865 63.2812 86.7444 63.6087 86.7444C63.8264 86.7365 64.0327 86.6453 64.185 86.4896C64.3669 86.3137 64.743 85.8831 65.301 85.1977C65.944 84.3889 66.2654 83.843 66.2654 83.56C66.2371 83.3124 66.1542 83.0742 66.0228 82.8625C65.9156 82.678 65.8571 82.4692 65.853 82.2559C65.851 81.9488 65.9512 81.6498 66.1379 81.406C66.3246 81.1622 66.5871 80.9875 66.8841 80.9094C68.0299 80.589 69.2199 80.4559 70.4081 80.5151C71.3957 80.4809 72.3838 80.5685 73.3499 80.7759C73.6784 80.8205 73.979 80.9841 74.1948 81.2356C74.4106 81.4872 74.5265 81.8093 74.5205 82.1407C74.5224 82.4165 74.4375 82.686 74.2779 82.911C74.1374 83.131 73.9219 83.2926 73.6714 83.3659C73.2605 83.4502 72.841 83.4848 72.4219 83.469C72.0732 83.4618 71.7259 83.5172 71.3968 83.6328C71.0561 83.7922 70.7445 84.0074 70.4749 84.2697Z" fill="#C43917"/>
<path d="M85.8509 90.9538C85.5233 90.9538 85.3171 91.0509 85.2443 91.2511C85.1212 91.699 85.074 92.1644 85.1048 92.6279C85.086 93.4859 85.1551 94.3436 85.311 95.1876C85.3418 95.3331 85.4086 95.4686 85.5051 95.5818C85.6508 95.7226 85.8163 95.8411 85.9965 95.9336C86.2194 96.0271 86.4109 96.1825 86.5485 96.3813C86.6861 96.5801 86.7639 96.8141 86.7728 97.0557C86.7728 97.6198 86.4089 98.0262 85.6932 98.2688C84.5026 98.5564 83.2775 98.6748 82.0539 98.6206C78.8756 98.6206 77.2864 98.0141 77.2864 96.801C77.2752 96.6261 77.3245 96.4526 77.4259 96.3097C77.6127 96.1026 77.8294 95.9248 78.0689 95.782C78.4123 95.5778 78.682 95.2698 78.8392 94.9025C79.0121 94.3297 79.1039 93.7356 79.1121 93.1374C79.1606 92.5309 79.1789 90.3412 79.1789 86.5746C79.2111 85.7615 79.1501 84.9475 78.9969 84.1484C78.9446 83.9451 78.8485 83.7556 78.7155 83.5933C78.5824 83.4309 78.4156 83.2995 78.2266 83.2082C77.9427 83.0922 77.6833 82.9235 77.4623 82.7108C77.3241 82.54 77.2549 82.3236 77.2682 82.1043C77.2692 81.9478 77.3026 81.7931 77.3663 81.6501C77.4299 81.5071 77.5225 81.3788 77.6382 81.2733C77.928 81.0122 78.2816 80.8322 78.6633 80.7517C79.1633 80.6438 79.6745 80.597 80.1857 80.6122C80.4688 80.6122 81.1784 80.6546 82.3147 80.7396C82.527 80.7396 82.8667 80.7396 83.3337 80.7396C84.104 80.7396 85.1533 80.691 86.4271 80.5879C87.2459 80.5273 87.8161 80.497 88.1436 80.497C89.7697 80.4335 91.3725 80.8997 92.7109 81.8253C93.2363 82.2011 93.66 82.7016 93.9437 83.2818C94.2275 83.8621 94.3625 84.5038 94.3365 85.1492C94.3466 85.9094 94.1495 86.6579 93.7663 87.3146C93.4047 87.9468 92.8617 88.4561 92.2075 88.7763C91.9346 88.9158 91.7951 89.0796 91.7951 89.2676C91.7951 89.4557 92.0073 89.7165 92.4016 89.8742C93.2117 90.131 93.9122 90.6521 94.3911 91.3542C94.8965 92.2926 95.2041 93.3248 95.2948 94.3869C95.2703 94.5817 95.2866 94.7795 95.3427 94.9676C95.3988 95.1558 95.4935 95.3302 95.6208 95.4797C95.7481 95.6292 95.9051 95.7506 96.0818 95.836C96.2586 95.9215 96.4512 95.9692 96.6474 95.9761C96.8197 96.0325 96.966 96.1487 97.0599 96.3036C97.1703 96.4688 97.2294 96.6629 97.2297 96.8616C97.2199 97.1576 97.1109 97.4417 96.9204 97.6683C96.7066 97.9415 96.4326 98.1615 96.1198 98.3113C95.1776 98.6863 94.1668 98.8578 93.1537 98.8147C91.4756 98.8147 90.2747 98.3719 89.5508 97.4864C89.1959 97.0501 88.9114 96.561 88.7077 96.0367C88.3847 95.115 88.1154 94.1753 87.901 93.2223C87.7867 92.5959 87.5293 92.0043 87.1489 91.4937C86.9791 91.3221 86.777 91.186 86.5541 91.0933C86.3313 91.0007 86.0922 90.9532 85.8509 90.9538ZM85.0988 84.3728L84.9593 87.4055V87.5208C84.9403 87.7319 84.9869 87.9437 85.0927 88.1273C85.1692 88.1897 85.2576 88.2358 85.3525 88.2629C85.4474 88.29 85.5468 88.2975 85.6447 88.285C85.9472 88.3092 86.2513 88.2675 86.5361 88.1628C86.8209 88.0581 87.0797 87.8929 87.2945 87.6785C87.6854 87.1334 87.8682 86.4664 87.81 85.7982C87.81 84.1443 87.2217 83.3154 86.045 83.3113C85.9171 83.2978 85.7879 83.3113 85.6656 83.351C85.5433 83.3907 85.4308 83.4557 85.3353 83.5418C85.1673 83.7853 85.0842 84.0773 85.0988 84.3728Z" fill="#C43917"/>
<path d="M111.623 81.3704L118.046 86.9931C118.394 87.379 118.847 87.6534 119.351 87.7816C119.793 87.7816 120.018 87.3024 120.018 86.3501C120.055 85.6047 119.99 84.8578 119.824 84.1301C119.762 83.9347 119.66 83.7544 119.524 83.6008C119.388 83.4473 119.222 83.3238 119.035 83.2385C118.761 83.1219 118.518 82.9433 118.325 82.7169C118.183 82.5058 118.111 82.2555 118.119 82.0012C118.119 81.2794 118.617 80.7881 119.605 80.6061C120.306 80.5006 121.014 80.458 121.722 80.4787C122.626 80.4406 123.531 80.518 124.415 80.7092C125.21 80.9518 125.628 81.4067 125.628 82.08C125.62 82.3657 125.521 82.6413 125.347 82.8678C125.173 83.0943 124.932 83.2601 124.658 83.3416C124.47 83.4173 124.292 83.5172 124.13 83.6388C124.022 83.7492 123.939 83.8816 123.888 84.027C123.594 85.0762 123.471 86.1657 123.524 87.2539V91.4876C123.524 92.1305 123.524 93.0161 123.524 94.1321C123.573 95.2308 123.483 96.3313 123.257 97.4075C123.02 98.2445 122.602 98.657 121.989 98.657C121.75 98.6642 121.514 98.6077 121.304 98.4932C120.961 98.2625 120.638 98.0027 120.339 97.7168L112.691 90.8689C112.346 90.4807 111.876 90.2254 111.362 90.1471C110.835 90.1471 110.574 90.875 110.574 92.3246C110.54 93.1385 110.607 93.9535 110.774 94.7508C110.834 94.9615 110.938 95.157 111.079 95.3243C111.22 95.4917 111.395 95.627 111.593 95.7213C112.169 96.0064 112.46 96.3703 112.46 96.8313C112.46 98.0444 111.174 98.6408 108.603 98.6206C107.679 98.6638 106.756 98.5087 105.897 98.1657C105.626 98.0708 105.389 97.8961 105.218 97.6646C105.047 97.433 104.95 97.1553 104.939 96.8677C104.922 96.6348 104.986 96.4033 105.121 96.2126C105.357 95.9671 105.631 95.7621 105.934 95.606C106.146 95.4636 106.323 95.274 106.45 95.052C106.578 94.83 106.652 94.5817 106.668 94.3262C106.837 92.7369 106.91 91.1387 106.886 89.5406C106.941 87.9136 106.811 86.2857 106.498 84.6882C106.458 84.3866 106.336 84.1018 106.146 83.8644C105.955 83.6271 105.704 83.4463 105.418 83.3416C105.114 83.2155 104.839 83.0276 104.611 82.7897C104.457 82.6045 104.375 82.3696 104.381 82.1285C104.381 81.3036 105.091 80.7881 106.51 80.5697C107.35 80.4853 108.195 80.4508 109.039 80.4666C109.546 80.4442 110.053 80.4995 110.543 80.6304C110.947 80.8055 111.314 81.0567 111.623 81.3704Z" fill="#C43917"/>
<path d="M133.386 85.4949C134.744 85.4549 136.078 85.8549 137.189 86.6352C137.695 86.98 138.094 87.4589 138.342 88.0181C138.59 88.7057 138.703 89.4348 138.675 90.1653L138.645 92.0881C138.585 92.9635 138.682 93.8425 138.93 94.6841C138.986 94.8262 139.081 94.9501 139.203 95.042C139.374 95.118 139.556 95.1671 139.743 95.1875C140.016 95.23 140.155 95.4059 140.155 95.7274C140.135 96.1989 139.96 96.6507 139.658 97.0133C139.315 97.4744 138.879 97.8587 138.378 98.1414C137.766 98.5077 137.066 98.7026 136.352 98.7055C135.948 98.724 135.545 98.65 135.174 98.4892C134.803 98.3284 134.474 98.0849 134.211 97.7775C134.156 97.6888 134.083 97.6131 133.996 97.5555C133.909 97.4979 133.811 97.4599 133.708 97.4439C133.451 97.4776 133.212 97.5899 133.022 97.7654C132.174 98.3883 131.145 98.7182 130.093 98.7055C129.129 98.7484 128.174 98.4966 127.357 97.9837C126.901 97.6637 126.53 97.2368 126.277 96.7403C126.015 96.2451 125.878 95.6933 125.877 95.133C125.88 94.6839 125.977 94.2404 126.163 93.8317C126.349 93.4229 126.62 93.0582 126.957 92.7614C128.085 91.6777 129.771 91.1318 132.015 91.1237C132.337 91.1575 132.661 91.1051 132.956 90.972C133.089 90.875 133.15 90.6445 133.15 90.2806C133.19 89.6089 133.093 88.936 132.865 88.3032C132.792 88.1184 132.663 87.9608 132.497 87.8521C132.331 87.7435 132.135 87.6891 131.936 87.6967C131.689 87.6948 131.447 87.776 131.251 87.9272C130.962 88.1781 130.707 88.4656 130.493 88.7824C129.729 89.8742 128.93 90.4201 128.097 90.4201C127.715 90.435 127.343 90.3 127.06 90.044C126.928 89.9181 126.824 89.7652 126.756 89.5956C126.688 89.4261 126.657 89.2439 126.666 89.0614C126.688 88.6132 126.861 88.1857 127.157 87.8483C127.532 87.4026 127.992 87.0357 128.509 86.7686C130.003 85.9426 131.68 85.5047 133.386 85.4949ZM132.519 92.9676C132.33 92.9677 132.144 93.009 131.973 93.0886C131.803 93.1682 131.651 93.2843 131.53 93.4286C131.282 93.7188 131.136 94.0823 131.114 94.4635C131.092 94.8447 131.196 95.2226 131.409 95.5393C131.5 95.6615 131.619 95.76 131.756 95.8265C131.894 95.893 132.045 95.9256 132.197 95.9215C132.883 95.9215 133.228 95.3149 133.228 94.1807C133.255 93.8543 133.205 93.5262 133.083 93.2223C133.02 93.1331 132.935 93.0624 132.836 93.0176C132.737 92.9728 132.627 92.9555 132.519 92.9676Z" fill="#C43917"/>
<path d="M153.803 89.5466L150.46 96.0489C150.11 96.7999 149.668 97.5047 149.144 98.1475C149.006 98.3259 148.831 98.4724 148.631 98.5771C148.431 98.6817 148.211 98.7421 147.986 98.7541C147.799 98.7617 147.614 98.7263 147.443 98.6505C147.273 98.5748 147.122 98.4608 147.003 98.3173C146.467 97.713 146.005 97.0472 145.626 96.3339L141.987 89.3768C141.842 89.0738 141.647 88.7971 141.411 88.558C141.189 88.3736 140.927 88.2429 140.647 88.1758C139.987 87.9575 139.658 87.5976 139.658 87.0962C139.658 86.5746 140.064 86.1924 140.871 85.9498C142.127 85.6593 143.416 85.5369 144.704 85.5859C145.789 85.5469 146.874 85.653 147.931 85.9013C148.623 86.1136 148.968 86.4411 148.968 86.8778C148.957 87.0527 148.907 87.2229 148.823 87.3768C148.74 87.5308 148.624 87.6647 148.483 87.7695C148.334 87.8949 148.199 88.0374 148.083 88.194C148.018 88.3017 147.986 88.4263 147.992 88.5519C148.071 89.0743 148.264 89.5732 148.556 90.0137C148.938 90.6748 149.29 91.0024 149.617 91.0024C149.718 91.0048 149.818 90.9841 149.909 90.9421C150.001 90.9001 150.081 90.8377 150.145 90.7597C150.428 90.3605 150.678 89.9386 150.891 89.4981C151.106 89.1539 151.243 88.7667 151.291 88.3639C151.247 88.0757 151.101 87.813 150.879 87.6239C150.63 87.4025 150.473 87.0947 150.442 86.7626C150.442 86.3582 150.715 86.061 151.261 85.871C152.139 85.6508 153.044 85.5589 153.948 85.598C155.707 85.598 156.581 85.9801 156.581 86.7383C156.581 87.175 156.265 87.4904 155.64 87.6906C155.272 87.778 154.929 87.9505 154.64 88.194C154.309 88.6108 154.028 89.0648 153.803 89.5466Z" fill="#C43917"/>
<path d="M164.059 86.3986V93.9138C164.04 94.3542 164.093 94.7948 164.217 95.2178C164.357 95.5287 164.585 95.7921 164.872 95.976C165.076 96.1069 165.256 96.2709 165.406 96.4613C165.501 96.6136 165.547 96.7913 165.539 96.9708C165.539 98.0828 164.134 98.6367 161.324 98.6327C160.115 98.6645 158.906 98.5442 157.727 98.2748C157.442 98.2006 157.186 98.042 156.993 97.8199C156.815 97.6169 156.718 97.3558 156.72 97.086C156.707 96.8957 156.756 96.7062 156.86 96.5462C157.072 96.3132 157.315 96.1093 157.581 95.9396C157.877 95.6913 158.079 95.3486 158.151 94.9692C158.28 94.31 158.335 93.6387 158.315 92.9675C158.315 92.6885 158.315 92.1548 158.261 91.3784C158.206 90.602 158.194 90.1653 158.176 90.0137C158.138 89.8271 158.052 89.6539 157.925 89.512C157.798 89.3702 157.635 89.2649 157.454 89.2069C157.229 89.1397 157.03 89.0034 156.887 88.8173C156.743 88.6312 156.661 88.4047 156.653 88.1697C156.653 87.6299 156.999 87.2235 157.697 86.9566C158.708 86.577 159.744 86.2629 160.796 86.0165C161.631 85.7974 162.487 85.6673 163.35 85.6283C163.823 85.6081 164.059 85.8649 164.059 86.3986ZM161.494 80.7517C162.128 80.7138 162.761 80.8614 163.313 81.1762C163.514 81.288 163.682 81.4516 163.798 81.65C163.914 81.8484 163.975 82.0744 163.974 82.3044C163.972 82.6331 163.877 82.9544 163.702 83.2321C163.526 83.5097 163.276 83.7326 162.98 83.8754C161.815 84.5159 160.499 84.8322 159.171 84.7913C158.649 84.8192 158.131 84.6949 157.678 84.4334C157.447 84.3072 157.255 84.1201 157.122 83.8924C156.989 83.6646 156.922 83.4049 156.926 83.1415C156.926 82.4015 157.46 81.8252 158.515 81.4007C159.458 80.9986 160.469 80.7784 161.494 80.7517Z" fill="#C43917"/>
<path d="M180.011 84.8156C180.13 84.8223 180.244 84.8593 180.344 84.9231C180.444 84.9868 180.526 85.0751 180.582 85.1795C180.747 85.4358 180.831 85.7359 180.824 86.0408C180.808 86.4648 180.696 86.8796 180.497 87.2539C180.306 87.6594 180.036 88.0225 179.702 88.3214C179.508 88.4913 179.405 88.6308 179.405 88.7339C179.405 88.837 179.405 88.8613 179.435 89.0432C179.458 89.206 179.47 89.3701 179.472 89.5345C179.483 90.0116 179.397 90.486 179.22 90.9291C179.043 91.3721 178.778 91.7747 178.441 92.1124C177.762 92.7691 176.942 93.2628 176.045 93.556C175.011 93.9125 173.923 94.089 172.83 94.0776C172.55 94.0779 172.27 94.0597 171.993 94.023C171.768 94.023 171.593 93.9866 171.477 93.9866C171.385 93.9737 171.291 93.9823 171.202 94.0118C171.113 94.0412 171.033 94.0908 170.966 94.1565C170.9 94.2223 170.85 94.3024 170.82 94.3908C170.789 94.4792 170.78 94.5733 170.792 94.6659C170.792 94.8114 170.834 94.9537 170.913 95.0762C170.991 95.1987 171.103 95.2962 171.235 95.3574C171.61 95.5459 172.028 95.6337 172.448 95.6122C172.958 95.5971 173.467 95.5485 173.97 95.4666C175.004 95.304 176.048 95.2047 177.094 95.1694C177.911 95.1253 178.725 95.2991 179.453 95.6728C179.899 95.9321 180.266 96.3073 180.515 96.7585C180.774 97.2154 180.91 97.7316 180.909 98.2567C180.89 99.1819 180.554 100.073 179.957 100.78C179.087 101.818 177.921 102.565 176.615 102.921C175.318 103.305 173.97 103.489 172.618 103.467C171.022 103.528 169.434 103.227 167.971 102.587C167.451 102.338 166.999 101.966 166.655 101.502C166.344 101.105 166.172 100.617 166.164 100.113C166.163 99.7826 166.26 99.4596 166.443 99.1847C166.611 98.9162 166.856 98.7048 167.147 98.5782C167.407 98.4751 167.535 98.3598 167.535 98.2385C167.535 98.1172 167.426 98.008 167.213 97.8261C166.914 97.6214 166.664 97.3512 166.485 97.0359C166.305 96.7206 166.199 96.3686 166.176 96.0064C166.2 95.5373 166.374 95.0884 166.673 94.7266C166.995 94.2988 167.41 93.9502 167.887 93.7076C168.093 93.6045 168.202 93.5014 168.202 93.3982C168.202 93.2951 168.069 93.101 167.814 92.8584C167.399 92.5049 167.066 92.0661 166.837 91.572C166.608 91.0779 166.488 90.5402 166.485 89.9955C166.485 89.4129 166.647 88.8416 166.952 88.3457C167.282 87.8036 167.73 87.3432 168.263 86.9992C169.629 86.1014 171.232 85.6306 172.866 85.6466C173.621 85.6549 174.374 85.7423 175.111 85.9074C175.642 86.0263 176.181 86.1034 176.724 86.1379C177.758 86.1019 178.748 85.7098 179.526 85.0279C179.663 84.9102 179.832 84.8363 180.011 84.8156ZM170.198 99.2211C169.985 99.2211 169.876 99.3485 169.876 99.5972C169.888 99.8559 169.971 100.106 170.117 100.32C170.263 100.534 170.465 100.704 170.701 100.81C171.361 101.153 172.099 101.316 172.842 101.283C173.518 101.313 174.192 101.198 174.819 100.944C175.021 100.879 175.197 100.754 175.325 100.586C175.453 100.418 175.527 100.215 175.535 100.004C175.535 99.8983 175.511 99.7943 175.465 99.6997C175.419 99.6051 175.351 99.5223 175.268 99.4577C175.079 99.3024 174.84 99.2206 174.595 99.2272C174.392 99.2323 174.189 99.2505 173.988 99.2818C173.455 99.3636 172.915 99.4021 172.375 99.397C171.954 99.3998 171.532 99.3775 171.113 99.3303C170.867 99.313 170.621 99.2786 170.379 99.2272L170.198 99.2211ZM173.018 87.4844C172.818 87.4789 172.619 87.5206 172.438 87.6059C172.257 87.6912 172.098 87.8179 171.975 87.9757C171.7 88.3508 171.563 88.8093 171.587 89.2737C171.552 90.0407 171.698 90.805 172.011 91.5058C172.094 91.7417 172.244 91.9477 172.444 92.0978C172.644 92.2479 172.884 92.3353 173.133 92.3489C173.342 92.3557 173.549 92.3118 173.737 92.2209C173.925 92.1301 174.088 91.995 174.213 91.8273C174.497 91.4172 174.638 90.9246 174.613 90.4262C174.651 89.687 174.508 88.9497 174.195 88.279C174.092 88.0501 173.927 87.8544 173.72 87.714C173.512 87.5736 173.269 87.4941 173.018 87.4844Z" fill="#C43917"/>
<path d="M188.849 85.4949C190.208 85.454 191.545 85.854 192.658 86.6352C193.162 86.9818 193.56 87.4602 193.811 88.0181C194.056 88.7062 194.167 89.4352 194.138 90.1653V92.088C194.076 92.9635 194.172 93.843 194.423 94.6841C194.478 94.8255 194.57 94.9492 194.69 95.0419C194.863 95.1186 195.047 95.1677 195.236 95.1875C195.509 95.23 195.648 95.4059 195.648 95.7273C195.625 96.1982 195.451 96.6491 195.151 97.0132C194.805 97.4745 194.367 97.8587 193.865 98.1414C193.253 98.5091 192.553 98.704 191.839 98.7055C191.435 98.7235 191.033 98.6493 190.662 98.4885C190.291 98.3277 189.961 98.0846 189.698 97.7775C189.644 97.688 189.571 97.6116 189.484 97.5539C189.397 97.4962 189.298 97.4586 189.195 97.4439C188.94 97.4764 188.702 97.589 188.515 97.7653C187.667 98.3882 186.638 98.7182 185.586 98.7055C184.622 98.7492 183.667 98.4973 182.85 97.9837C182.394 97.6604 182.022 97.2333 181.763 96.7376C181.505 96.2419 181.368 95.6919 181.364 95.1329C181.368 94.6834 181.466 94.2398 181.654 93.8311C181.841 93.4224 182.112 93.0578 182.45 92.7613C183.578 91.6776 185.264 91.1317 187.508 91.1236C187.83 91.1574 188.154 91.1051 188.449 90.972C188.576 90.8749 188.643 90.6445 188.643 90.2805C188.68 89.609 188.583 88.9367 188.358 88.3032C188.285 88.1184 188.156 87.9608 187.99 87.8521C187.824 87.7434 187.628 87.6891 187.43 87.6966C187.18 87.6948 186.937 87.7759 186.738 87.9271C186.452 88.1786 186.199 88.4661 185.986 88.7823C185.222 89.8741 184.413 90.42 183.56 90.42C183.18 90.434 182.81 90.2991 182.529 90.044C182.393 89.9194 182.287 89.7672 182.215 89.5976C182.144 89.4281 182.11 89.2452 182.116 89.0614C182.138 88.612 182.314 88.1838 182.614 87.8483C182.988 87.404 183.445 87.0372 183.96 86.7686C185.458 85.9419 187.138 85.5039 188.849 85.4949ZM187.988 92.9675C187.799 92.9672 187.613 93.0083 187.442 93.088C187.271 93.1676 187.12 93.2839 186.999 93.4285C186.722 93.7313 186.573 94.1286 186.58 94.5385C186.563 94.8962 186.667 95.2493 186.878 95.5393C186.969 95.6618 187.088 95.7606 187.225 95.8271C187.362 95.8937 187.514 95.926 187.666 95.9214C188.352 95.9214 188.697 95.3149 188.697 94.1806C188.722 93.8537 188.67 93.5255 188.546 93.2223C188.484 93.1341 188.399 93.064 188.301 93.0192C188.203 92.9744 188.095 92.9566 187.988 92.9675Z" fill="#C43917"/>
<path d="M204.122 88.8916V93.2527C204.102 93.7044 204.237 94.1494 204.504 94.5143C204.614 94.6682 204.76 94.7933 204.929 94.8788C205.098 94.9643 205.285 95.0078 205.475 95.0056C205.95 94.9595 206.408 94.7993 206.809 94.5386C206.886 94.4847 206.974 94.4486 207.067 94.4326C207.16 94.4166 207.255 94.4212 207.346 94.4461C207.437 94.471 207.521 94.5155 207.593 94.5766C207.665 94.6376 207.722 94.7137 207.761 94.7994C207.928 95.0373 208.017 95.3213 208.016 95.6121C207.994 95.9169 207.904 96.2128 207.753 96.4783C207.602 96.7438 207.393 96.9722 207.143 97.1467C205.903 98.1913 204.323 98.7458 202.703 98.7055C201.489 98.7641 200.301 98.3462 199.391 97.541C198.974 97.1467 198.646 96.6677 198.429 96.1363C198.213 95.6048 198.113 95.0331 198.135 94.4597V88.5034C198.164 88.4423 198.174 88.3736 198.163 88.3069C198.151 88.2401 198.119 88.1785 198.071 88.1306C198.023 88.0827 197.962 88.0509 197.895 88.0394C197.828 88.028 197.76 88.0375 197.699 88.0667H196.37C196.286 88.0786 196.2 88.0734 196.118 88.0515C196.035 88.0297 195.958 87.9915 195.891 87.9393C195.802 87.7632 195.766 87.5652 195.788 87.3692V86.799C195.785 86.6874 195.811 86.5771 195.863 86.4783C195.915 86.3796 195.992 86.2958 196.085 86.2349L201.993 82.5168C202.162 82.4335 202.35 82.3939 202.539 82.4015H203.582C203.66 82.3913 203.74 82.399 203.814 82.4243C203.889 82.4495 203.957 82.4915 204.013 82.5471C204.106 82.7347 204.144 82.9452 204.122 83.1536V84.8944C204.099 85.0715 204.142 85.2508 204.243 85.3979C204.399 85.494 204.583 85.5346 204.765 85.5131H207.155C207.262 85.5001 207.372 85.509 207.476 85.5392C207.58 85.5695 207.677 85.6204 207.761 85.689C207.881 85.916 207.93 86.1739 207.901 86.429V87.1932C207.927 87.4894 207.866 87.7867 207.725 88.0485C207.642 88.1386 207.539 88.2076 207.424 88.2498C207.309 88.292 207.185 88.3061 207.064 88.2911H204.741C204.567 88.2727 204.392 88.3179 204.249 88.4185C204.151 88.5558 204.106 88.7237 204.122 88.8916Z" fill="#C43917"/>
<path d="M216.532 85.4948C218.005 85.464 219.451 85.8876 220.675 86.7079C221.528 87.2983 222.231 88.0818 222.725 88.9946C223.248 89.9329 223.524 90.9893 223.525 92.0638C223.525 93.9319 222.668 95.5191 220.954 96.8252C219.347 98.0616 217.37 98.7198 215.343 98.6934C213.515 98.7756 211.726 98.1475 210.351 96.9404C209.739 96.3786 209.256 95.6907 208.936 94.9242C208.615 94.1577 208.465 93.3307 208.495 92.5005C208.471 91.5528 208.663 90.6122 209.056 89.7496C209.449 88.8869 210.033 88.1248 210.764 87.5207C212.371 86.1578 214.425 85.4363 216.532 85.4948ZM215.476 88.4548C215.303 88.4489 215.13 88.4836 214.972 88.5563C214.814 88.629 214.675 88.7375 214.567 88.8733C214.325 89.1933 214.204 89.5889 214.227 89.9894C214.25 90.6989 214.345 91.4041 214.512 92.0941C214.682 92.9011 214.913 93.694 215.203 94.4657C215.274 94.7607 215.44 95.0241 215.676 95.215C215.912 95.4058 216.204 95.5134 216.508 95.5211C217.272 95.5211 217.654 95.0359 217.654 94.0654C217.642 93.2367 217.544 92.4114 217.363 91.6028C217.217 90.8306 216.983 90.0776 216.665 89.3586C216.578 89.1079 216.418 88.8885 216.207 88.7278C215.995 88.567 215.741 88.4721 215.476 88.4548Z" fill="#C43917"/>
<path d="M230.476 85.5858C230.931 85.5858 231.21 85.6525 231.307 85.7799C231.468 86.1651 231.559 86.5759 231.574 86.993C231.617 87.3751 231.75 87.5632 231.968 87.5632C232.187 87.5632 232.308 87.4358 232.46 87.1871C232.726 86.7027 233.116 86.2979 233.591 86.0143C234.065 85.7308 234.606 85.5787 235.159 85.5737C235.515 85.5617 235.869 85.6234 236.2 85.755C236.531 85.8865 236.831 86.085 237.082 86.3379C237.345 86.6146 237.551 86.9402 237.688 87.2963C237.84 87.6636 237.919 88.0573 237.919 88.4548C237.891 89.3245 237.526 90.1492 236.9 90.7536C236.63 91.0117 236.313 91.2142 235.965 91.3495C235.618 91.4848 235.247 91.5503 234.874 91.5421C234.492 91.5545 234.113 91.4733 233.77 91.3056C233.34 91.0482 232.948 90.7317 232.605 90.3654C232.479 90.2126 232.299 90.1148 232.102 90.0925C231.987 90.0913 231.876 90.1319 231.789 90.2067C231.702 90.2814 231.645 90.3853 231.629 90.4989C231.533 91.0637 231.497 91.6369 231.52 92.2093C231.495 93.0972 231.542 93.9856 231.659 94.866C231.691 95.0665 231.779 95.2538 231.914 95.4059C232.121 95.5528 232.357 95.656 232.605 95.7091C233.376 95.9396 233.764 96.346 233.764 96.9222C233.766 97.2692 233.631 97.6029 233.388 97.8502C233.121 98.1235 232.775 98.306 232.399 98.3719C231.197 98.5709 229.978 98.6562 228.76 98.6266C227.59 98.6715 226.42 98.5364 225.29 98.2263C224.997 98.1709 224.732 98.0166 224.539 97.7892C224.346 97.5618 224.236 97.2751 224.229 96.9768C224.244 96.7252 224.324 96.4817 224.46 96.2694C224.595 96.0571 224.783 95.8831 225.005 95.7637C225.201 95.6466 225.375 95.4968 225.521 95.3209C225.628 95.1548 225.695 94.9657 225.715 94.769C225.89 93.3284 225.959 91.8768 225.921 90.4261C225.94 90.1431 225.896 89.8596 225.794 89.5951C225.676 89.4028 225.493 89.2588 225.278 89.1887C224.672 88.9461 224.362 88.5822 224.362 88.1394C224.366 87.9258 224.424 87.7166 224.53 87.5311C224.636 87.3457 224.787 87.1898 224.969 87.0779C225.626 86.6772 226.339 86.3786 227.086 86.1924C228.183 85.8376 229.324 85.6336 230.476 85.5858Z" fill="#C43917"/>
</svg>
