<?xml version="1.0" encoding="UTF-8"?>
<!DOCTYPE svg PUBLIC "-//W3C//DTD SVG 1.1//EN" "http://www.w3.org/Graphics/SVG/1.1/DTD/svg11.dtd">
<svg xmlns="http://www.w3.org/2000/svg" version="1.1" width="52px" height="51px" style="shape-rendering:geometricPrecision; text-rendering:geometricPrecision; image-rendering:optimizeQuality; fill-rule:evenodd; clip-rule:evenodd" xmlns:xlink="http://www.w3.org/1999/xlink">
<g><path style="opacity:0.875" fill="#c34521" d="M 18.5,-0.5 C 23.1667,-0.5 27.8333,-0.5 32.5,-0.5C 41.8333,2.83333 48.1667,9.16667 51.5,18.5C 51.5,22.8333 51.5,27.1667 51.5,31.5C 48.1667,40.8333 41.8333,47.1667 32.5,50.5C 27.8333,50.5 23.1667,50.5 18.5,50.5C 8.11914,46.124 1.78581,38.4573 -0.5,27.5C -0.5,25.8333 -0.5,24.1667 -0.5,22.5C 1.78581,11.5427 8.11914,3.87602 18.5,-0.5 Z"/></g>
<g><path style="opacity:1" fill="#bbecc3" d="M 13.5,24.5 C 13.6529,27.5772 12.9863,30.4105 11.5,33C 11.5247,34.876 12.1914,36.376 13.5,37.5C 14.1342,38.9468 15.3009,39.6134 17,39.5C 19.4271,39.0187 21.7604,39.0187 24,39.5C 24.9277,41.3348 26.0944,41.6682 27.5,40.5C 31.8204,43.5072 35.9871,42.8405 40,38.5C 40.923,36.9656 41.423,35.299 41.5,33.5C 40.6939,29.7529 39.6939,26.0862 38.5,22.5C 39.2613,21.6091 40.2613,20.9424 41.5,20.5C 43.6365,21.1685 45.9698,21.3351 48.5,21C 49.435,23.3806 49.7683,25.8806 49.5,28.5C 47.7702,40.064 41.1036,46.8974 29.5,49C 11.6,49.2676 2.26665,40.4342 1.5,22.5C 2.22158,22.0825 2.72158,21.4158 3,20.5C 5.30724,21.1446 7.80724,21.1446 10.5,20.5C 11.8592,21.6243 12.8592,22.9577 13.5,24.5 Z"/></g>
<g><path style="opacity:1" fill="#14110e" d="M 36.5,19.5 C 36.9321,20.7095 37.5987,21.7095 38.5,22.5C 39.6939,26.0862 40.6939,29.7529 41.5,33.5C 41.423,35.299 40.923,36.9656 40,38.5C 35.9871,42.8405 31.8204,43.5072 27.5,40.5C 26.0944,41.6682 24.9277,41.3348 24,39.5C 21.7604,39.0187 19.4271,39.0187 17,39.5C 15.3009,39.6134 14.1342,38.9468 13.5,37.5C 14.8699,34.3811 15.8699,31.0477 16.5,27.5C 17.6266,28.1217 18.6266,28.955 19.5,30C 21.3869,30.7796 23.0536,30.6129 24.5,29.5C 25.9305,29.5792 27.2638,29.2458 28.5,28.5C 29.2733,30.813 29.9399,33.1463 30.5,35.5C 32.4213,36.641 34.4213,36.8077 36.5,36C 41.5068,30.6418 40.5068,27.4752 33.5,26.5C 33.8333,24.5 34.1667,22.5 34.5,20.5C 35.1667,20.1667 35.8333,19.8333 36.5,19.5 Z"/></g>
<g><path style="opacity:1" fill="#825f4f" d="M 21.5,24.5 C 22.8333,24.5 24.1667,24.5 25.5,24.5C 24.2644,26.8275 22.2644,27.9942 19.5,28C 20.9047,29.2692 22.5714,29.7692 24.5,29.5C 23.0536,30.6129 21.3869,30.7796 19.5,30C 18.6266,28.955 17.6266,28.1217 16.5,27.5C 16.5,27.1667 16.5,26.8333 16.5,26.5C 18.0109,25.4975 19.6776,24.8308 21.5,24.5 Z"/></g>
<g><path style="opacity:1" fill="#b59175" d="M 29.5,18.5 C 30.404,19.209 30.7373,20.209 30.5,21.5C 31.9587,21.5674 33.2921,21.2341 34.5,20.5C 34.1667,22.5 33.8333,24.5 33.5,26.5C 40.5068,27.4752 41.5068,30.6418 36.5,36C 34.4213,36.8077 32.4213,36.641 30.5,35.5C 29.9399,33.1463 29.2733,30.813 28.5,28.5C 27.2638,29.2458 25.9305,29.5792 24.5,29.5C 22.5714,29.7692 20.9047,29.2692 19.5,28C 22.2644,27.9942 24.2644,26.8275 25.5,24.5C 25.3893,23.8826 25.056,23.3826 24.5,23C 25.9506,23.2626 27.2839,23.0959 28.5,22.5C 27.286,20.9309 25.6193,20.0976 23.5,20C 25.2495,18.6814 27.2495,18.1814 29.5,18.5 Z"/></g>
<g><path style="opacity:1" fill="#d8b599" d="M 29.5,18.5 C 27.2495,18.1814 25.2495,18.6814 23.5,20C 25.6193,20.0976 27.286,20.9309 28.5,22.5C 27.2839,23.0959 25.9506,23.2626 24.5,23C 25.056,23.3826 25.3893,23.8826 25.5,24.5C 24.1667,24.5 22.8333,24.5 21.5,24.5C 22.1134,21.5151 21.7801,18.5151 20.5,15.5C 23.3315,14.4188 25.9982,14.5855 28.5,16C 29.2524,16.6708 29.5858,17.5041 29.5,18.5 Z"/></g>
<g><path style="opacity:1" fill="#b99678" d="M 20.5,15.5 C 21.7801,18.5151 22.1134,21.5151 21.5,24.5C 19.6776,24.8308 18.0109,25.4975 16.5,26.5C 15.9112,22.9335 15.9112,19.2668 16.5,15.5C 18.1388,15.0742 19.4721,15.0742 20.5,15.5 Z"/></g>
<g><path style="opacity:1" fill="#c3edca" d="M 21.5,7.5 C 16.31,11.8243 13.6433,17.491 13.5,24.5C 12.8592,22.9577 11.8592,21.6243 10.5,20.5C 7.80724,21.1446 5.30724,21.1446 3,20.5C 2.72158,21.4158 2.22158,22.0825 1.5,22.5C 1.97899,15.7017 4.97899,10.3683 10.5,6.5C 13.4385,6.59366 16.2718,6.26033 19,5.5C 19.9947,6.06594 20.828,6.73261 21.5,7.5 Z"/></g>
<g><path style="opacity:1" fill="#21201e" d="M 36.5,19.5 C 35.8333,19.8333 35.1667,20.1667 34.5,20.5C 33.2921,21.2341 31.9587,21.5674 30.5,21.5C 30.7373,20.209 30.404,19.209 29.5,18.5C 29.5858,17.5041 29.2524,16.6708 28.5,16C 25.9982,14.5855 23.3315,14.4188 20.5,15.5C 19.4721,15.0742 18.1388,15.0742 16.5,15.5C 15.9112,19.2668 15.9112,22.9335 16.5,26.5C 16.5,26.8333 16.5,27.1667 16.5,27.5C 15.8699,31.0477 14.8699,34.3811 13.5,37.5C 12.1914,36.376 11.5247,34.876 11.5,33C 12.9863,30.4105 13.6529,27.5772 13.5,24.5C 13.6433,17.491 16.31,11.8243 21.5,7.5C 29.0995,5.31789 34.2662,7.98456 37,15.5C 37.765,17.0657 37.5983,18.3991 36.5,19.5 Z"/></g>
<g><path style="opacity:1" fill="#c7eccb" d="M 49.5,28.5 C 49.7683,25.8806 49.435,23.3806 48.5,21C 45.9698,21.3351 43.6365,21.1685 41.5,20.5C 40.2613,20.9424 39.2613,21.6091 38.5,22.5C 37.5987,21.7095 36.9321,20.7095 36.5,19.5C 37.5983,18.3991 37.765,17.0657 37,15.5C 34.2662,7.98456 29.0995,5.31789 21.5,7.5C 20.828,6.73261 19.9947,6.06594 19,5.5C 16.2718,6.26033 13.4385,6.59366 10.5,6.5C 19.9564,-0.938171 29.9564,-1.43817 40.5,5C 48.2372,11.2638 51.2372,19.0971 49.5,28.5 Z"/></g>
</svg>
