<?xml version="1.0" encoding="UTF-8"?>
<svg version="1.1" xmlns="http://www.w3.org/2000/svg" width="74" height="72">
<path d="M0 0 C2.475 0.99 2.475 0.99 5 2 C5 3.98 5 5.96 5 8 C5.66 8.33 6.32 8.66 7 9 C7.99 9.66 8.98 10.32 10 11 C10.29296875 13.6015625 10.29296875 13.6015625 10.1875 16.625 C10.14689453 18.12933594 10.14689453 18.12933594 10.10546875 19.6640625 C10.07066406 20.43492188 10.03585938 21.20578125 10 22 C10.57234375 21.67257813 11.1446875 21.34515625 11.734375 21.0078125 C14.14906842 19.93369025 15.63530538 19.78784351 18.25 19.875 C19.4875 19.91625 20.725 19.9575 22 20 C22.125 23.375 22.125 23.375 22 27 C20.66666667 28.33333333 19.33333333 29.66666667 18 31 C17.67 31.99 17.34 32.98 17 34 C16.01 34.33 15.02 34.66 14 35 C12.78130071 37.50447516 12.78130071 37.50447516 12 40 C9.36 40.33 6.72 40.66 4 41 C3.72285156 41.77085938 3.44570313 42.54171875 3.16015625 43.3359375 C2.79792969 44.33882812 2.43570313 45.34171875 2.0625 46.375 C1.70285156 47.37273438 1.34320313 48.37046875 0.97265625 49.3984375 C-0.79379785 54.12317016 -3.48005572 57.37172831 -7.77734375 60.1484375 C-10.69472406 61.26616845 -13.13601427 61.19269534 -16.25 61.125 C-17.32765625 61.10695312 -18.4053125 61.08890625 -19.515625 61.0703125 C-20.74539062 61.03550781 -20.74539062 61.03550781 -22 61 C-22 60.34 -22 59.68 -22 59 C-23.95927063 57.2856382 -25.95880212 55.61594832 -28 54 C-28.99 54.66 -29.98 55.32 -31 56 C-33.10726972 56.63856658 -34.79728436 57 -37 57 C-37 51.39 -37 45.78 -37 40 C-36.01 39.505 -36.01 39.505 -35 39 C-34.67 38.01 -34.34 37.02 -34 36 C-32.25 35.4375 -32.25 35.4375 -30 35 C-28.3255761 34.3530635 -26.65697379 33.69040574 -25 33 C-25 32.01 -25 31.02 -25 30 C-25.66 30 -26.32 30 -27 30 C-27.33 28.02 -27.66 26.04 -28 24 C-28.99 24 -29.98 24 -31 24 C-31.33 21.03 -31.66 18.06 -32 15 C-32.78375 14.773125 -33.5675 14.54625 -34.375 14.3125 C-37 13 -37 13 -38.25 10.625 C-38.87906994 8.42325519 -39.50325734 6.23534199 -40 4 C-37.25 3.6875 -37.25 3.6875 -34 4 C-31.625 6.5 -31.625 6.5 -30 9 C-29.4225 8.21625 -28.845 7.4325 -28.25 6.625 C-25.62236242 3.55942283 -23.74311001 2.25835717 -19.74169922 1.6652832 C-18.93748535 1.62749756 -18.13327148 1.58971191 -17.3046875 1.55078125 C-16.42425781 1.50759766 -15.54382813 1.46441406 -14.63671875 1.41992188 C-13.72535156 1.38447266 -12.81398438 1.34902344 -11.875 1.3125 C-10.95589844 1.26544922 -10.03679688 1.21839844 -9.08984375 1.16992188 C-2.27095266 0.86452367 -2.27095266 0.86452367 0 2 C0 1.34 0 0.68 0 0 Z M-1 31 C-1 31.99 -1 32.98 -1 34 C0.485 34.99 0.485 34.99 2 36 C1.67 34.35 1.34 32.7 1 31 C0.34 31 -0.32 31 -1 31 Z M-29 50 C-28.34 50.66 -27.68 51.32 -27 52 C-27 51.34 -27 50.68 -27 50 C-27.66 50 -28.32 50 -29 50 Z " fill="#9D9EA1" transform="translate(50,5)"/>
<path d="M0 0 C0.33 0.66 0.66 1.32 1 2 C2.19625 1.67 3.3925 1.34 4.625 1 C10.73664688 -0.35273713 20.35870665 -2.27486986 25.89453125 1.18359375 C27.40992286 3.67354816 27.36414589 5.47488474 27.3125 8.375 C27.30863281 9.31085937 27.30476563 10.24671875 27.30078125 11.2109375 C26.60359839 17.67572398 23.65460464 21.67013522 19 26 C15.57632379 28.21222155 12.77448912 28.21248889 8.75 28.125 C7.67234375 28.10695313 6.5946875 28.08890625 5.484375 28.0703125 C4.66453125 28.04710938 3.8446875 28.02390625 3 28 C3 27.34 3 26.68 3 26 C1.04072937 24.2856382 -0.95880212 22.61594832 -3 21 C-3.99 21.66 -4.98 22.32 -6 23 C-8.10726972 23.63856658 -9.79728436 24 -12 24 C-12 18.39 -12 12.78 -12 7 C-11.34 6.67 -10.68 6.34 -10 6 C-9.67 5.01 -9.34 4.02 -9 3 C-7.25 2.4375 -7.25 2.4375 -5 2 C-3.3255761 1.3530635 -1.65697379 0.69040574 0 0 Z M-4 17 C-3.34 17.66 -2.68 18.32 -2 19 C-2 18.34 -2 17.68 -2 17 C-2.66 17 -3.32 17 -4 17 Z " fill="#5D8EC3" transform="translate(25,38)"/>
<path d="M0 0 C1.65 0.66 3.3 1.32 5 2 C5 3.98 5 5.96 5 8 C5.66 8.33 6.32 8.66 7 9 C6.34 9.66 5.68 10.32 5 11 C4.49984375 10.18144531 3.9996875 9.36289063 3.484375 8.51953125 C1.15111831 5.63813715 1.15111831 5.63813715 -2.671875 5.51171875 C-4.0321116 5.5447342 -5.39192338 5.60406429 -6.75 5.6875 C-7.79607422 5.72133789 -7.79607422 5.72133789 -8.86328125 5.75585938 C-10.57644935 5.81452952 -12.28850623 5.90420744 -14 6 C-13.67 6.99 -13.34 7.98 -13 9 C-10.68970915 9.74259349 -8.354248 10.411438 -6 11 C-5 12 -5 12 -4.9375 14.5625 C-4.958125 15.366875 -4.97875 16.17125 -5 17 C-5.99 17.33 -6.98 17.66 -8 18 C-8.66 17.67 -9.32 17.34 -10 17 C-10.33 18.65 -10.66 20.3 -11 22 C-5.72 22 -0.44 22 5 22 C1.35715647 23.82142176 -0.30194499 24.2927495 -4.1875 24.5625 C-7.40003798 24.54989247 -7.40003798 24.54989247 -10 26 C-15.17647059 26.50094877 -15.17647059 26.50094877 -18 26 C-20.8038995 22.82224723 -21.7526258 19.00941706 -23 15 C-23.33 14.34 -23.66 13.68 -24 13 C-24.07033769 11.12620395 -24.0843022 9.24998898 -24.0625 7.375 C-24.05347656 6.37210938 -24.04445313 5.36921875 -24.03515625 4.3359375 C-24.02355469 3.56507812 -24.01195313 2.79421875 -24 2 C-20.3754207 1.80367975 -16.75032733 1.61944022 -13.125 1.4375 C-12.09246094 1.38142578 -11.05992188 1.32535156 -9.99609375 1.26757812 C-8.51689453 1.19506836 -8.51689453 1.19506836 -7.0078125 1.12109375 C-6.09660645 1.0739624 -5.18540039 1.02683105 -4.24658203 0.97827148 C-2 1 -2 1 0 2 C0 1.34 0 0.68 0 0 Z " fill="#E8E8E8" transform="translate(50,5)"/>
<path d="M0 0 C1.0828125 0.9590625 1.0828125 0.9590625 2.1875 1.9375 C4.98191184 3.98673535 6.61663274 4.61332946 10 5 C10 6.65 10 8.3 10 10 C19.37392137 13.80023839 28.06999253 13.52769346 38 12 C38.226875 12.9075 38.45375 13.815 38.6875 14.75 C40.18127977 18.44888324 41.75400577 19.77905658 45 22 C44.505 23.485 44.505 23.485 44 25 C42.72125 25.0825 41.4425 25.165 40.125 25.25 C37.95365445 25.30367785 37.95365445 25.30367785 36 26 C35.34 27.32 34.68 28.64 34 30 C33.67 25.71 33.34 21.42 33 17 C32.01 17.33 31.02 17.66 30 18 C27.96165219 18.20327014 25.918985 18.36470076 23.875 18.5 C18.56147539 18.87486232 13.2891577 19.37247282 8 20 C7.67 18.35 7.34 16.7 7 15 C6.34 15 5.68 15 5 15 C4.67 13.02 4.34 11.04 4 9 C3.01 9 2.02 9 1 9 C0.67 6.03 0.34 3.06 0 0 Z " fill="#566273" transform="translate(18,20)"/>
<path d="M0 0 C2.97 0.495 2.97 0.495 6 1 C6 1.99 6 2.98 6 4 C7.98 4 9.96 4 12 4 C12.33 3.01 12.66 2.02 13 1 C16 3 19 5 22 7 C18.87709365 6.51421457 16.00419641 6.0013988 13 5 C13.53977565 8.47548841 13.53977565 8.47548841 15 12 C18.22843589 13.57987288 20.41999658 14 24 14 C26 14.1875 26 14.1875 28 15 C29.75 17.5625 29.75 17.5625 31 20 C27.32612505 20.85298376 23.9552607 21.10789471 20.1875 21.0625 C18.72376953 21.04896484 18.72376953 21.04896484 17.23046875 21.03515625 C16.49441406 21.02355469 15.75835937 21.01195313 15 21 C15 20.34 15 19.68 15 19 C13.04072937 17.2856382 11.04119788 15.61594832 9 14 C8.01 14.66 7.02 15.32 6 16 C3.89273028 16.63856658 2.20271564 17 0 17 C0 11.39 0 5.78 0 0 Z M8 10 C8.66 10.66 9.32 11.32 10 12 C10 11.34 10 10.68 10 10 C9.34 10 8.68 10 8 10 Z " fill="#577696" transform="translate(13,45)"/>
<path d="M0 0 C1.48831242 0.00667405 2.97660807 0.01863442 4.46484375 0.03515625 C5.22345703 0.03966797 5.98207031 0.04417969 6.76367188 0.04882812 C8.64326246 0.06064945 10.52281274 0.07858547 12.40234375 0.09765625 C12.73234375 0.75765625 13.06234375 1.41765625 13.40234375 2.09765625 C13.89734375 2.73703125 14.39234375 3.37640625 14.90234375 4.03515625 C17.74640816 7.94574481 17.49075798 11.41170219 17.40234375 16.09765625 C11.33418853 17.32664971 5.60339187 18.37325839 -0.59765625 18.09765625 C-0.59765625 15.09765625 -0.59765625 15.09765625 0.40234375 12.09765625 C1.72234375 12.09765625 3.04234375 12.09765625 4.40234375 12.09765625 C4.40234375 10.44765625 4.40234375 8.79765625 4.40234375 7.09765625 C2.09234375 6.10765625 -0.21765625 5.11765625 -2.59765625 4.09765625 C-2.59765625 3.43765625 -2.59765625 2.77765625 -2.59765625 2.09765625 C-3.25765625 1.76765625 -3.91765625 1.43765625 -4.59765625 1.09765625 C-3.59765625 0.09765625 -3.59765625 0.09765625 0 0 Z " fill="#2B3138" transform="translate(39.59765625,9.90234375)"/>
<path d="M0 0 C0.33 0.66 0.66 1.32 1 2 C2.19625 1.67 3.3925 1.34 4.625 1 C11.03375105 -0.45606824 17.46619456 -0.16729516 24 0 C23.67 0.66 23.34 1.32 23 2 C14.585 2.495 14.585 2.495 6 3 C6 5.97 6 8.94 6 12 C4.35 11.01 2.7 10.02 1 9 C0.67 9.66 0.34 10.32 0 11 C-1.98 11 -3.96 11 -6 11 C-6 10.01 -6 9.02 -6 8 C-7.32 8.33 -8.64 8.66 -10 9 C-10 7.35 -10 5.7 -10 4 C-6.7 2.68 -3.4 1.36 0 0 Z " fill="#5B87BC" transform="translate(25,38)"/>
<path d="M0 0 C0.99 0.33 1.98 0.66 3 1 C2.97679688 1.67546875 2.95359375 2.3509375 2.9296875 3.046875 C2.91164063 3.93890625 2.89359375 4.8309375 2.875 5.75 C2.85179688 6.63171875 2.82859375 7.5134375 2.8046875 8.421875 C3.00860498 11.1135858 3.63448279 12.69904974 5 15 C1.75 15.75 1.75 15.75 -2 16 C-4.125 14.1875 -4.125 14.1875 -6 12 C-6.86625 11.690625 -7.7325 11.38125 -8.625 11.0625 C-11 10 -11 10 -12.25 7.625 C-12.87906994 5.42325519 -13.50325734 3.23534199 -14 1 C-11.25 0.6875 -11.25 0.6875 -8 1 C-5.625 3.5 -5.625 3.5 -4 6 C-1.32668287 3.28996707 -1.32668287 3.28996707 0 0 Z " fill="#A5B7CC" transform="translate(24,8)"/>
<path d="M0 0 C1.35208914 0.62775567 2.68163705 1.30419733 4 2 C4.70125 2.350625 5.4025 2.70125 6.125 3.0625 C9.15241396 6.19082776 9.26398664 9.76792315 10 14 C15.94 14 21.88 14 28 14 C24.35715647 15.82142176 22.69805501 16.2927495 18.8125 16.5625 C15.59996202 16.54989247 15.59996202 16.54989247 13 18 C7.82352941 18.50094877 7.82352941 18.50094877 5 18 C2.1961005 14.82224723 1.2473742 11.00941706 0 7 C-0.33 6.34 -0.66 5.68 -1 5 C-0.72057545 3.32345271 -0.39171753 1.65391846 0 0 Z " fill="#D7D8DA" transform="translate(27,13)"/>
<path d="M0 0 C-0.41514897 4.8434046 -2.46208699 6.81587829 -6 10 C-6.33 10.33 -6.66 10.66 -7 11 C-8.66617115 11.04063832 -10.33388095 11.042721 -12 11 C-11.9071875 9.576875 -11.9071875 9.576875 -11.8125 8.125 C-11.874375 7.09375 -11.93625 6.0625 -12 5 C-14.91765 3.0549 -16.62537285 2.54723683 -20 2 C-20 1.34 -20 0.68 -20 0 C-17.41814569 -0.3902803 -14.83579017 -0.76263148 -12.25 -1.125 C-11.52039062 -1.23714844 -10.79078125 -1.34929688 -10.0390625 -1.46484375 C-6.0994391 -2.00206512 -3.33777335 -2.3715758 0 0 Z " fill="#95C9F1" transform="translate(52,41)"/>
<path d="M0 0 C3 2 6 4 9 6 C5.87709365 5.51421457 3.00419641 5.0013988 0 4 C0.53977565 7.47548841 0.53977565 7.47548841 2 11 C5.22843589 12.57987288 7.41999658 13 11 13 C13 13.1875 13 13.1875 15 14 C16.75 16.5625 16.75 16.5625 18 19 C14.32612505 19.85298376 10.9552607 20.10789471 7.1875 20.0625 C6.21167969 20.05347656 5.23585938 20.04445313 4.23046875 20.03515625 C3.12638672 20.01775391 3.12638672 20.01775391 2 20 C2 19.34 2 18.68 2 18 C1.34 17.34 0.68 16.68 0 16 C-2.0976011 10.47999711 -2.07503518 6.66836733 -1 1 C-0.67 0.67 -0.34 0.34 0 0 Z " fill="#6D7789" transform="translate(26,46)"/>
<path d="M0 0 C0.3403125 1.36125 0.3403125 1.36125 0.6875 2.75 C2.18127977 6.44888324 3.75400577 7.77905658 7 10 C6.67 10.99 6.34 11.98 6 13 C4.72125 13.0825 3.4425 13.165 2.125 13.25 C-0.04634555 13.30367785 -0.04634555 13.30367785 -2 14 C-2.66 15.32 -3.32 16.64 -4 18 C-4.495 11.565 -4.495 11.565 -5 5 C-10.61 5 -16.22 5 -22 5 C-20 2 -20 2 -18.04467773 1.47583008 C-16.87594116 1.37371216 -16.87594116 1.37371216 -15.68359375 1.26953125 C-14.41418945 1.14868164 -14.41418945 1.14868164 -13.11914062 1.02539062 C-12.23419922 0.95513672 -11.34925781 0.88488281 -10.4375 0.8125 C-9.10428711 0.6897168 -9.10428711 0.6897168 -7.74414062 0.56445312 C-1.52566964 0 -1.52566964 0 0 0 Z " fill="#6483AA" transform="translate(56,32)"/>
<path d="M0 0 C0.125 3.375 0.125 3.375 0 7 C-1.33333333 8.33333333 -2.66666667 9.66666667 -4 11 C-4.33 11.99 -4.66 12.98 -5 14 C-7.8125 15.375 -7.8125 15.375 -11 16 C-13.375 14.625 -13.375 14.625 -15 13 C-14.74478802 9.55463828 -13.78710059 8.81024183 -11.125 6.4375 C-10.09375 5.633125 -9.0625 4.82875 -8 4 C-7.443125 3.4225 -6.88625 2.845 -6.3125 2.25 C-4.4093061 0.43743438 -2.58981947 0 0 0 Z " fill="#909399" transform="translate(72,25)"/>
<path d="M0 0 C1.48831242 0.00667405 2.97660807 0.01863442 4.46484375 0.03515625 C5.22345703 0.03966797 5.98207031 0.04417969 6.76367188 0.04882812 C8.64326246 0.06064945 10.52281274 0.07858547 12.40234375 0.09765625 C12.73234375 0.75765625 13.06234375 1.41765625 13.40234375 2.09765625 C13.91796875 2.67515625 14.43359375 3.25265625 14.96484375 3.84765625 C16.83831545 6.78004673 16.77389708 8.67936561 16.40234375 12.09765625 C15.74234375 12.75765625 15.08234375 13.41765625 14.40234375 14.09765625 C12.91734375 9.64265625 12.91734375 9.64265625 11.40234375 5.09765625 C10.41234375 5.09765625 9.42234375 5.09765625 8.40234375 5.09765625 C7.74234375 6.41765625 7.08234375 7.73765625 6.40234375 9.09765625 C6.03109375 8.64390625 5.65984375 8.19015625 5.27734375 7.72265625 C2.8596969 5.62736231 0.44803773 4.9775234 -2.59765625 4.09765625 C-2.59765625 3.43765625 -2.59765625 2.77765625 -2.59765625 2.09765625 C-3.25765625 1.76765625 -3.91765625 1.43765625 -4.59765625 1.09765625 C-3.59765625 0.09765625 -3.59765625 0.09765625 0 0 Z " fill="#2B2D32" transform="translate(39.59765625,9.90234375)"/>
<path d="M0 0 C0.99 0.33 1.98 0.66 3 1 C3 1.66 3 2.32 3 3 C4.134375 3.309375 5.26875 3.61875 6.4375 3.9375 C10 5 10 5 11 6 C11.04063832 7.66617115 11.042721 9.33388095 11 11 C10.01 11.33 9.02 11.66 8 12 C7.34 11.67 6.68 11.34 6 11 C6 12.32 6 13.64 6 15 C5.01 15.33 4.02 15.66 3 16 C2.29954544 14.08802961 1.615081 12.17019565 0.9375 10.25 C0.55464844 9.18265625 0.17179687 8.1153125 -0.22265625 7.015625 C-0.98010011 4.07719958 -1.07151741 2.77651052 0 0 Z " fill="#6F767C" transform="translate(34,11)"/>
<path d="M0 0 C0.33 0.66 0.66 1.32 1 2 C1.7425 1.938125 2.485 1.87625 3.25 1.8125 C6 2 6 2 8.3125 2.9375 C11.01923334 6.24572964 10.31024137 9.88930183 10 14 C9.01 14.495 9.01 14.495 8 15 C7.67 14.01 7.34 13.02 7 12 C5.845 11.5875 4.69 11.175 3.5 10.75 C2.345 10.1725 1.19 9.595 0 9 C-1.61797753 3.23595506 -1.61797753 3.23595506 0 0 Z " fill="#7AA4D0" transform="translate(31,41)"/>
<path d="M0 0 C1 1 1 1 1.125 3.9375 C1 7 1 7 0 9 C-1.98 9 -3.96 9 -6 9 C-6 8.01 -6 7.02 -6 6 C-7.32 6.33 -8.64 6.66 -10 7 C-10 5.35 -10 3.7 -10 2 C-6.50971852 0.40444275 -3.84597567 -0.32049797 0 0 Z " fill="#749EC8" transform="translate(25,40)"/>
<path d="M0 0 C4.38889325 0.66498383 7.9811485 2.18757677 12 4 C11.67 5.98 11.34 7.96 11 10 C7.24413583 10 5.23349228 8.85753812 2 7 C0 4 0 4 0 0 Z " fill="#C5C3C3" transform="translate(26,50)"/>
<path d="M0 0 C2.475 0.99 2.475 0.99 5 2 C5.33 2.99 5.66 3.98 6 5 C8.00016466 6.20882096 8.00016466 6.20882096 10 7 C9 9 9 9 6 11 C3.89273028 11.63856658 2.20271564 12 0 12 C0 8.04 0 4.08 0 0 Z " fill="#818185" transform="translate(13,50)"/>
<path d="M0 0 C3.2008465 0.34294784 3.95413975 0.94441182 6.0625 3.5 C6.701875 4.325 7.34125 5.15 8 6 C8.99 6.33 9.98 6.66 11 7 C11 6.34 11 5.68 11 5 C12.32 4.34 13.64 3.68 15 3 C15.99 4.32 16.98 5.64 18 7 C14.32612505 7.85298376 10.9552607 8.10789471 7.1875 8.0625 C6.21167969 8.05347656 5.23585938 8.04445313 4.23046875 8.03515625 C3.49441406 8.02355469 2.75835938 8.01195313 2 8 C2 7.34 2 6.68 2 6 C1.34 5.34 0.68 4.68 0 4 C0 2.68 0 1.36 0 0 Z " fill="#5C5D61" transform="translate(26,58)"/>
<path d="M0 0 C2.375 1.3125 2.375 1.3125 4.375 3.3125 C4.045 4.3025 3.715 5.2925 3.375 6.3125 C2.09625 6.395 0.8175 6.4775 -0.5 6.5625 C-2.67134555 6.61617785 -2.67134555 6.61617785 -4.625 7.3125 C-5.92289757 9.2817697 -5.92289757 9.2817697 -6.625 11.3125 C-7.24371419 3.11453692 -7.24371419 3.11453692 -4.9375 0.125 C-2.625 -0.6875 -2.625 -0.6875 0 0 Z " fill="#436A95" transform="translate(58.625,38.6875)"/>
<path d="M0 0 C1.98 0 3.96 0 6 0 C6 1.32 6 2.64 6 4 C7.62553283 5.70680947 9.29115995 7.37660195 11 9 C11 9.66 11 10.32 11 11 C8.8125 11.3125 8.8125 11.3125 6 11 C2.64254905 8.40560608 1.20550762 6.83783875 0.1875 2.6875 C0.125625 1.800625 0.06375 0.91375 0 0 Z " fill="#1F2F42" transform="translate(10,9)"/>
<path d="M0 0 C-1.16240363 3.48721089 -1.74538871 3.7019361 -4.8125 5.4375 C-7.99020362 7.32016103 -10.52568133 9.21639149 -13 12 C-12.75554295 7.84423007 -12.34064564 5.47089251 -9.875 2.0625 C-6.3303705 -0.48038638 -4.269321 -0.41856088 0 0 Z " fill="#D6D6D9" transform="translate(69,25)"/>
<path d="M0 0 C1.125 3.75 1.125 3.75 0 6 C-2.375 8.1875 -2.375 8.1875 -5 10 C-5.99 9.67 -6.98 9.34 -8 9 C-6.87548273 6.0280615 -5.77706209 3.66559313 -4 1 C-1.875 0.3125 -1.875 0.3125 0 0 Z " fill="#A9A8A9" transform="translate(49,53)"/>
<path d="M0 0 C-0.30618405 3.67420866 -0.75771784 4.78135513 -3.5625 7.3125 C-4.366875 7.869375 -5.17125 8.42625 -6 9 C-6.1875 6.625 -6.1875 6.625 -6 4 C-5.01 3.34 -4.02 2.68 -3 2 C-8.94 1.01 -8.94 1.01 -15 0 C-15 -0.33 -15 -0.66 -15 -1 C-13.25181409 -1.22304441 -11.50129677 -1.4278645 -9.75 -1.625 C-8.77546875 -1.74101563 -7.8009375 -1.85703125 -6.796875 -1.9765625 C-3.86570607 -2.00112537 -2.45471036 -1.5312717 0 0 Z " fill="#89B6E5" transform="translate(52,41)"/>
<path d="M0 0 C0.99 0.33 1.98 0.66 3 1 C3 1.66 3 2.32 3 3 C3.65355469 2.50886719 4.30710937 2.01773437 4.98046875 1.51171875 C8.81210125 -0.40657592 12.13738444 -0.33301341 16.3125 -0.1875 C17.42334961 -0.16719727 17.42334961 -0.16719727 18.55664062 -0.14648438 C20.37141075 -0.11135979 22.18580288 -0.05755972 24 0 C20.88739179 1.79210776 18.38065683 2.31478453 14.8125 2.5625 C11.59996202 2.54989247 11.59996202 2.54989247 9 4 C6.32941149 4.14115161 3.67567762 4.04247107 1 4 C0.67 2.68 0.34 1.36 0 0 Z " fill="#C1C1C1" transform="translate(31,27)"/>
<path d="M0 0 C2.3125 0.125 2.3125 0.125 5 1 C8 5.86206897 8 5.86206897 8 9 C9.0725 8.95875 10.145 8.9175 11.25 8.875 C14.77723487 8.9925745 16.061073 9.34847907 19 11 C17.06183265 10.8858134 15.12444901 10.75826577 13.1875 10.625 C12.10855469 10.55539063 11.02960937 10.48578125 9.91796875 10.4140625 C7 10 7 10 4 8 C3.8125 5.375 3.8125 5.375 4 3 C2.35 3 0.7 3 -1 3 C-0.67 2.01 -0.34 1.02 0 0 Z " fill="#92A0AF" transform="translate(24,22)"/>
<path d="M0 0 C0.125 3.375 0.125 3.375 0 7 C-0.66 7.66 -1.32 8.32 -2 9 C-4.625 8.625 -4.625 8.625 -7 8 C-5.9363919 4.72054168 -4.1945074 0 0 0 Z " fill="#6D95BF" transform="translate(52,45)"/>
<path d="M0 0 C2.475 0.99 2.475 0.99 5 2 C5 3.98 5 5.96 5 8 C5.66 8.33 6.32 8.66 7 9 C6.34 9.66 5.68 10.32 5 11 C4.2575 9.7934375 4.2575 9.7934375 3.5 8.5625 C0.04304061 5.01911662 -2.14788209 5.2426059 -7 5 C-7 4.67 -7 4.34 -7 4 C-4.36 4 -1.72 4 1 4 C0.67 2.68 0.34 1.36 0 0 Z " fill="#778F9C" transform="translate(50,5)"/>
<path d="M0 0 C-1.79989737 1.79989737 -4.56284665 1.34203636 -7 1.5 C-12.35627617 1.87204564 -17.66876695 2.36748082 -23 3 C-23 2.01 -23 1.02 -23 0 C-19.72966072 -0.19689005 -16.45872059 -0.38089008 -13.1875 -0.5625 C-12.25873047 -0.61857422 -11.32996094 -0.67464844 -10.37304688 -0.73242188 C-9.48037109 -0.78076172 -8.58769531 -0.82910156 -7.66796875 -0.87890625 C-6.84578857 -0.9260376 -6.0236084 -0.97316895 -5.17651367 -1.02172852 C-3 -1 -3 -1 0 0 Z " fill="#264574" transform="translate(49,37)"/>
<path d="M0 0 C0.99 0.33 1.98 0.66 3 1 C3 4.96 3 8.92 3 13 C2.01 13.33 1.02 13.66 0 14 C-0.99293628 11.02119115 -1.13406411 8.98398802 -1.125 5.875 C-1.12757812 4.98554688 -1.13015625 4.09609375 -1.1328125 3.1796875 C-1 1 -1 1 0 0 Z " fill="#6F8798" transform="translate(57,15)"/>
<path d="M0 0 C2 1 2 1 2.8125 2.9375 C4.39241741 5.68156708 6.0515206 6.06890124 9 7 C8.979375 7.78375 8.95875 8.5675 8.9375 9.375 C8.81315937 11.98114961 8.81315937 11.98114961 10 14 C9.01 13.67 8.02 13.34 7 13 C6.67 11.35 6.34 9.7 6 8 C4.35 8.33 2.7 8.66 1 9 C0.67 6.03 0.34 3.06 0 0 Z " fill="#303E4F" transform="translate(18,20)"/>
<path d="M0 0 C1.21236328 0.01353516 1.21236328 0.01353516 2.44921875 0.02734375 C3.37154297 0.04474609 3.37154297 0.04474609 4.3125 0.0625 C4.3125 0.7225 4.3125 1.3825 4.3125 2.0625 C-11.79464286 4.99107143 -11.79464286 4.99107143 -17.6875 1.0625 C-17.00042969 1.07410156 -16.31335937 1.08570313 -15.60546875 1.09765625 C-14.25388672 1.11119141 -14.25388672 1.11119141 -12.875 1.125 C-11.53501953 1.14240234 -11.53501953 1.14240234 -10.16796875 1.16015625 C-6.63035573 1.02088015 -3.61575827 -0.05240229 0 0 Z " fill="#808792" transform="translate(50.6875,30.9375)"/>
<path d="M0 0 C3.875 0.875 3.875 0.875 5 2 C5.04063832 3.66617115 5.042721 5.33388095 5 7 C3.68 7 2.36 7 1 7 C0.34 6.34 -0.32 5.68 -1 5 C-0.625 2.375 -0.625 2.375 0 0 Z " fill="#B2F3F4" transform="translate(40,15)"/>
<path d="M0 0 C-0.04125 1.051875 -0.0825 2.10375 -0.125 3.1875 C-0.00852125 6.74010173 0.47208068 8.84866641 2 12 C1.34 12 0.68 12 0 12 C-1.4606285 9.35261084 -2 8.10551666 -2 5 C-3.32 5.33 -4.64 5.66 -6 6 C-6.33 4.68 -6.66 3.36 -7 2 C-1.125 0 -1.125 0 0 0 Z " fill="#B0B0B1" transform="translate(25,50)"/>
<path d="M0 0 C2.08901197 3.39464446 2.34361606 6.04841529 2 10 C1.34 10.66 0.68 11.32 0 12 C-0.18175781 11.37351562 -0.36351562 10.74703125 -0.55078125 10.1015625 C-0.92783203 8.87566406 -0.92783203 8.87566406 -1.3125 7.625 C-1.67794922 6.40683594 -1.67794922 6.40683594 -2.05078125 5.1640625 C-2.91368185 2.66815371 -2.91368185 2.66815371 -6 1 C-3 0 -3 0 0 0 Z " fill="#232329" transform="translate(54,12)"/>
<path d="M0 0 C1.98 0.495 1.98 0.495 4 1 C4.33 2.98 4.66 4.96 5 7 C3.68 7 2.36 7 1 7 C-1 4 -1 4 -0.625 1.8125 C-0.41875 1.214375 -0.2125 0.61625 0 0 Z " fill="#AAEEEF" transform="translate(48,14)"/>
<path d="M0 0 C5.95703125 -0.29296875 5.95703125 -0.29296875 8 0 C8.99 0.99 9.98 1.98 11 3 C5.06 3.495 5.06 3.495 -1 4 C-0.67 2.68 -0.34 1.36 0 0 Z " fill="#D6D6D6" transform="translate(40,6)"/>
<path d="M0 0 C2.96175123 0.61277612 4.38058783 1.25372522 7 3 C6.67 4.65 6.34 6.3 6 8 C5.01 8 4.02 8 3 8 C0 1.125 0 1.125 0 0 Z " fill="#90B8E1" transform="translate(34,43)"/>
<path d="M0 0 C0.125 3.375 0.125 3.375 0 7 C-0.66 7.66 -1.32 8.32 -2 9 C-2.99 8.67 -3.98 8.34 -5 8 C-4.67 6.68 -4.34 5.36 -4 4 C-4.66 3.67 -5.32 3.34 -6 3 C-4.60722783 0.21445565 -3.01148006 0 0 0 Z " fill="#7B7B7B" transform="translate(72,25)"/>
<path d="M0 0 C4.62 0 9.24 0 14 0 C13.67 0.66 13.34 1.32 13 2 C10.45058627 2.31241371 7.99638487 2.51303421 5.4375 2.625 C4.37112305 2.68300781 4.37112305 2.68300781 3.28320312 2.7421875 C1.52257575 2.83671783 -0.23867728 2.91945817 -2 3 C-1.34 2.67 -0.68 2.34 0 2 C0 1.34 0 0.68 0 0 Z " fill="#6292CC" transform="translate(35,38)"/>
<path d="M0 0 C0.99 0.33 1.98 0.66 3 1 C3.0825 1.598125 3.165 2.19625 3.25 2.8125 C4.50015911 6.45879741 7.66214012 7.30072588 11 9 C10.34 9.66 9.68 10.32 9 11 C2.25 7.375 2.25 7.375 0 4 C0 2.68 0 1.36 0 0 Z " fill="#9D9DA2" transform="translate(26,50)"/>
<path d="M0 0 C1.875 0.125 1.875 0.125 4 1 C5.25 4.0625 5.25 4.0625 6 7 C4.68 7.33 3.36 7.66 2 8 C2 7.34 2 6.68 2 6 C1.34 5.34 0.68 4.68 0 4 C0 2.68 0 1.36 0 0 Z " fill="#65656A" transform="translate(26,58)"/>
<path d="M0 0 C2.475 0.99 2.475 0.99 5 2 C4 4 4 4 1 6 C-1.10726972 6.63856658 -2.79728436 7 -5 7 C-5 6.34 -5 5.68 -5 5 C-4.360625 4.731875 -3.72125 4.46375 -3.0625 4.1875 C-0.66868314 3.11332248 -0.66868314 3.11332248 0 0 Z " fill="#4C4C4D" transform="translate(18,55)"/>
<path d="M0 0 C1.98 0.495 1.98 0.495 4 1 C3.67 2.65 3.34 4.3 3 6 C1.68 5.67 0.36 5.34 -1 5 C-0.67 3.35 -0.34 1.7 0 0 Z " fill="#D9FBFC" transform="translate(42,46)"/>
<path d="M0 0 C1.32 0.66 2.64 1.32 4 2 C2.02 2.99 2.02 2.99 0 4 C0 4.66 0 5.32 0 6 C-1.9375 5.6875 -1.9375 5.6875 -4 5 C-4.33 4.01 -4.66 3.02 -5 2 C-3.68 2.33 -2.36 2.66 -1 3 C-0.67 2.01 -0.34 1.02 0 0 Z " fill="#5B6B82" transform="translate(37,59)"/>
<path d="M0 0 C2.375 0.25 2.375 0.25 5 1 C6.3125 3.0625 6.3125 3.0625 7 5 C5.02 5.33 3.04 5.66 1 6 C0 3 0 3 0 0 Z " fill="#ABDEF7" transform="translate(22,18)"/>
<path d="M0 0 C1.98 0 3.96 0 6 0 C6 1.32 6 2.64 6 4 C7.41977909 6.22743787 7.41977909 6.22743787 9 8 C7 7 7 7 5 6 C4.278125 5.71125 3.55625 5.4225 2.8125 5.125 C1 4 1 4 0.25 1.875 C0.1675 1.25625 0.085 0.6375 0 0 Z " fill="#446590" transform="translate(10,9)"/>
<path d="M0 0 C8.57142857 -0.28571429 8.57142857 -0.28571429 12 2 C12 2.33 12 2.66 12 3 C7.45194365 3.17835515 4.1205746 2.99785435 0 1 C0 0.67 0 0.34 0 0 Z " fill="#C5E9FD" transform="translate(33,42)"/>
<path d="M0 0 C0.99 0 1.98 0 3 0 C3 1.32 3 2.64 3 4 C3.804375 4.28875 4.60875 4.5775 5.4375 4.875 C8 6 8 6 9 8 C5.56801397 6.76067171 2.69674368 5.49698489 0 3 C0 2.01 0 1.02 0 0 Z " fill="#B2B1B3" transform="translate(28,51)"/>
<path d="M0 0 C1.65 0.33 3.3 0.66 5 1 C4.34 2.32 3.68 3.64 3 5 C0.69 5 -1.62 5 -4 5 C-4.33 4.34 -4.66 3.68 -5 3 C-3.02 3 -1.04 3 1 3 C0.67 2.01 0.34 1.02 0 0 Z " fill="#5B6A7F" transform="translate(31,32)"/>
<path d="M0 0 C0.66 0 1.32 0 2 0 C2.33 0.99 2.66 1.98 3 3 C2.67 3.66 2.34 4.32 2 5 C3.32 5.33 4.64 5.66 6 6 C3.69 6 1.38 6 -1 6 C-1 3 -1 3 0 0 Z " fill="#414750" transform="translate(40,22)"/>
<path d="M0 0 C0.99 0.33 1.98 0.66 3 1 C3 2.65 3 4.3 3 6 C1.68 6 0.36 6 -1 6 C-0.67 4.02 -0.34 2.04 0 0 Z " fill="#93BEE5" transform="translate(23,40)"/>
<path d="M0 0 C0 0.66 0 1.32 0 2 C-0.66 2 -1.32 2 -2 2 C-2 2.66 -2 3.32 -2 4 C-3.98 4 -5.96 4 -8 4 C-7.67 3.01 -7.34 2.02 -7 1 C-4.52260646 0.09162237 -2.66420516 0 0 0 Z " fill="#4B6886" transform="translate(23,40)"/>
<path d="M0 0 C0.33 0 0.66 0 1 0 C1.33 1.98 1.66 3.96 2 6 C-0.475 7.485 -0.475 7.485 -3 9 C-2.5020163 5.26512223 -2.12508244 3.18762365 0 0 Z " fill="#5889C6" transform="translate(55,32)"/>
<path d="M0 0 C2.31 0 4.62 0 7 0 C6 3 6 3 4 5 C2 3.625 2 3.625 0 2 C0 1.34 0 0.68 0 0 Z " fill="#4E6486" transform="translate(48,33)"/>
<path d="M0 0 C2.96175123 0.61277612 4.38058783 1.25372522 7 3 C6.21625 3.0825 5.4325 3.165 4.625 3.25 C1.85250896 3.72806339 1.85250896 3.72806339 0.6875 6.0625 C0.3471875 7.0215625 0.3471875 7.0215625 0 8 C0 5.36 0 2.72 0 0 Z " fill="#2F4561" transform="translate(52,42)"/>
<path d="M0 0 C4.29425875 1.07356469 4.74740471 1.5084773 7 5 C6.67 5.66 6.34 6.32 6 7 C4.02 4.69 2.04 2.38 0 0 Z " fill="#A7DFF6" transform="translate(14,11)"/>
<path d="M0 0 C0.99 0.33 1.98 0.66 3 1 C3 2.98 3 4.96 3 7 C1.68 6.34 0.36 5.68 -1 5 C-0.67 3.35 -0.34 1.7 0 0 Z " fill="#BABBBC" transform="translate(24,8)"/>
<path d="M0 0 C2 1 2 1 2 1 Z " fill="#000000" transform="translate(19,12)"/>
<path d="" fill="#000000" transform="translate(0,0)"/>
<path d="" fill="#000000" transform="translate(0,0)"/>
<path d="" fill="#000000" transform="translate(0,0)"/>
<path d="" fill="#000000" transform="translate(0,0)"/>
<path d="" fill="#000000" transform="translate(0,0)"/>
<path d="" fill="#000000" transform="translate(0,0)"/>
<path d="" fill="#000000" transform="translate(0,0)"/>
<path d="" fill="#000000" transform="translate(0,0)"/>
<path d="" fill="#000000" transform="translate(0,0)"/>
<path d="" fill="#000000" transform="translate(0,0)"/>
<path d="" fill="#000000" transform="translate(0,0)"/>
<path d="" fill="#000000" transform="translate(0,0)"/>
<path d="" fill="#000000" transform="translate(0,0)"/>
<path d="" fill="#000000" transform="translate(0,0)"/>
<path d="" fill="#000000" transform="translate(0,0)"/>
<path d="" fill="#000000" transform="translate(0,0)"/>
<path d="" fill="#000000" transform="translate(0,0)"/>
<path d="" fill="#000000" transform="translate(0,0)"/>
<path d="" fill="#000000" transform="translate(0,0)"/>
<path d="" fill="#000000" transform="translate(0,0)"/>
<path d="" fill="#000000" transform="translate(0,0)"/>
<path d="" fill="#000000" transform="translate(0,0)"/>
<path d="" fill="#000000" transform="translate(0,0)"/>
<path d="" fill="#000000" transform="translate(0,0)"/>
<path d="" fill="#000000" transform="translate(0,0)"/>
<path d="" fill="#000000" transform="translate(0,0)"/>
<path d="" fill="#000000" transform="translate(0,0)"/>
<path d="" fill="#000000" transform="translate(0,0)"/>
<path d="" fill="#000000" transform="translate(0,0)"/>
<path d="" fill="#000000" transform="translate(0,0)"/>
<path d="" fill="#000000" transform="translate(0,0)"/>
<path d="" fill="#000000" transform="translate(0,0)"/>
<path d="" fill="#000000" transform="translate(0,0)"/>
<path d="" fill="#000000" transform="translate(0,0)"/>
<path d="" fill="#000000" transform="translate(0,0)"/>
<path d="" fill="#000000" transform="translate(0,0)"/>
<path d="" fill="#000000" transform="translate(0,0)"/>
<path d="" fill="#000000" transform="translate(0,0)"/>
<path d="" fill="#000000" transform="translate(0,0)"/>
<path d="" fill="#000000" transform="translate(0,0)"/>
<path d="" fill="#000000" transform="translate(0,0)"/>
</svg>
